<svg width="56" height="54" viewBox="0 0 56 54" fill="none" xmlns="http://www.w3.org/2000/svg">
<path d="M47.7825 36.7227V16.3067C47.7816 15.4117 47.5453 14.5326 47.0974 13.7577C46.6495 12.9828 46.0057 12.3393 45.2305 11.8918L27.3666 1.6838C26.5907 1.23584 25.7105 1 24.8146 1C23.9187 1 23.0385 1.23584 22.2626 1.6838L4.39867 11.8918C3.62354 12.3393 2.97971 12.9828 2.53179 13.7577C2.08387 14.5326 1.8476 15.4117 1.84668 16.3067V36.7227C1.8476 37.6177 2.08387 38.4968 2.53179 39.2717C2.97971 40.0466 3.62354 40.6901 4.39867 41.1376L22.2626 51.3456C23.0385 51.7935 23.9187 52.0294 24.8146 52.0294C25.7105 52.0294 26.5907 51.7935 27.3666 51.3456L45.2305 41.1376C46.0057 40.6901 46.6495 40.0466 47.0974 39.2717C47.5453 38.4968 47.7816 37.6177 47.7825 36.7227Z" fill="#BAC8E2" stroke="#F8FAFF" stroke-width="2" stroke-linecap="round" stroke-linejoin="round"/>
<path d="M2.53564 13.6527L19.8073 23.6438C22.905 25.4357 26.7241 25.4357 29.8218 23.6438L47.0934 13.6527" fill="#BAC8E2"/>
<path d="M2.53564 13.6527L19.8073 23.6438C22.905 25.4357 26.7241 25.4357 29.8218 23.6438L47.0934 13.6527" stroke="#F8FAFF" stroke-width="2" stroke-linecap="round" stroke-linejoin="round"/>
<path d="M24.8147 52.2387V26.5146" stroke="#F8FAFF" stroke-width="2" stroke-linecap="round" stroke-linejoin="round"/>
<rect x="35.6084" y="31.949" width="20.2899" height="20.2899" rx="10" fill="#05488D"/>
<path d="M49.239 35.897C49.6016 35.5343 50.0935 35.3306 50.6064 35.3306C51.1193 35.3306 51.6111 35.5343 51.9738 35.897C52.3365 36.2596 52.5402 36.7515 52.5402 37.2644C52.5402 37.7773 52.3365 38.2692 51.9738 38.6318L43.3135 47.2922L39.667 48.2038L40.5786 44.5573L49.239 35.897Z" fill="#EDF0F7"/>
</svg>
