<svg width="64" height="68" viewBox="0 0 64 68" fill="none" xmlns="http://www.w3.org/2000/svg">
<path d="M49.5996 42.1932V56.3961" stroke="#979797" stroke-width="0.5" stroke-linecap="square" stroke-linejoin="round" stroke-dasharray="2 4"/>
<path fill-rule="evenodd" clip-rule="evenodd" d="M39.041 32.1349C39.041 31.0303 39.9364 30.1349 41.041 30.1349H61.5112C62.6158 30.1349 63.5112 31.0303 63.5112 32.1349V39.7582C63.5112 40.8628 62.6158 41.7582 61.5112 41.7582H41.041C39.9364 41.7582 39.041 40.8628 39.041 39.7582V32.1349ZM43.935 33.6594C43.935 33.4661 44.0917 33.3094 44.285 33.3094H58.2671C58.4604 33.3094 58.6171 33.4661 58.6171 33.6594C58.6171 33.8527 58.4604 34.0094 58.2671 34.0094H44.285C44.0917 34.0094 43.935 33.8527 43.935 33.6594ZM44.285 37.3877C44.0917 37.3877 43.935 37.5444 43.935 37.7377C43.935 37.931 44.0917 38.0877 44.285 38.0877H48.479C48.6723 38.0877 48.829 37.931 48.829 37.7377C48.829 37.5444 48.6723 37.3877 48.479 37.3877H44.285Z" fill="#05488D"/>
<path fill-rule="evenodd" clip-rule="evenodd" d="M15.8179 6.82934C15.8179 5.17249 17.161 3.82935 18.8179 3.82935H44.9598C46.6166 3.82935 47.9598 5.17249 47.9598 6.82935V12.7396H15.8179V6.82934ZM15.8179 13.7396H47.9598V28.2994H41.2062C38.997 28.2994 37.2062 30.0903 37.2062 32.2994V39.5933C37.2062 41.8024 38.997 43.5933 41.2062 43.5933H47.9598V50.3815C47.9598 52.0383 46.6166 53.3815 44.9598 53.3815H18.8179C17.161 53.3815 15.8179 52.0383 15.8179 50.3815V13.7396ZM27.0317 8.18628C26.7556 8.18628 26.5317 8.41014 26.5317 8.68628C26.5317 8.96242 26.7556 9.18628 27.0317 9.18628H36.7457C37.0219 9.18628 37.2457 8.96242 37.2457 8.68628C37.2457 8.41014 37.0219 8.18628 36.7457 8.18628H27.0317ZM33.8976 48.694C33.8976 49.8035 32.9982 50.7029 31.8887 50.7029C30.7793 50.7029 29.8799 49.8035 29.8799 48.694C29.8799 47.5846 30.7793 46.6852 31.8887 46.6852C32.9982 46.6852 33.8976 47.5846 33.8976 48.694Z" fill="#BAC8E2"/>
<path fill-rule="evenodd" clip-rule="evenodd" d="M12.982 17.2881C13.5343 17.2881 13.982 17.7358 13.982 18.2881V27.0868V31.698C13.982 32.605 12.38 31.0145 11.6968 30.2949C11.5013 30.0891 11.2317 29.9688 10.9478 29.9688H1.52344C0.971153 29.9688 0.523438 29.5211 0.523438 28.9688V18.2881C0.523438 17.7358 0.971154 17.2881 1.52344 17.2881H12.982ZM3.11719 20.6224C2.92389 20.6224 2.76719 20.7791 2.76719 20.9724C2.76719 21.1657 2.92389 21.3224 3.11719 21.3224H11.3896C11.5829 21.3224 11.7396 21.1657 11.7396 20.9724C11.7396 20.7791 11.5829 20.6224 11.3896 20.6224H3.11719ZM3.11719 23.5049C2.92389 23.5049 2.76719 23.6616 2.76719 23.8549C2.76719 24.0482 2.92389 24.2049 3.11719 24.2049H11.3896C11.5829 24.2049 11.7396 24.0482 11.7396 23.8549C11.7396 23.6616 11.5829 23.5049 11.3896 23.5049H3.11719ZM2.76719 26.7372C2.76719 26.5439 2.92389 26.3872 3.11719 26.3872H6.90339C7.09669 26.3872 7.25339 26.5439 7.25339 26.7372C7.25339 26.9305 7.09669 27.0872 6.90339 27.0872H3.11719C2.92389 27.0872 2.76719 26.9305 2.76719 26.7372Z" fill="#BAC8E2"/>
<rect x="11.7251" y="0.260864" width="2.70531" height="2.70531" fill="#979797"/>
<rect x="11.7251" y="12.4348" width="2.70531" height="2.70531" fill="#979797"/>
<rect x="48.2466" y="0.260864" width="2.70531" height="2.70531" fill="#979797"/>
<rect x="48.2466" y="25.285" width="2.70531" height="2.70531" fill="#979797"/>
<rect x="48.2466" y="54.3672" width="2.70531" height="2.70531" fill="#979797"/>
<path d="M13.0776 13.6551V1.61353H49.5994V26.623V30.0193" stroke="#979797" stroke-width="0.5" stroke-linecap="square" stroke-linejoin="round" stroke-dasharray="2 4"/>
<path d="M13.7539 36.7827L38.7781 57.0726" stroke="white" stroke-width="2.5" stroke-linecap="square" stroke-linejoin="round"/>
<path d="M15.5095 37.8786L38.123 56.7184L23.7175 56.7184L15.052 66.4418L15.5095 37.8786Z" fill="#05488D"/>
</svg>
