<svg width="69" height="55" viewBox="0 0 69 55" fill="none" xmlns="http://www.w3.org/2000/svg">
<path fill-rule="evenodd" clip-rule="evenodd" d="M42.4358 11.552C42.4358 16.0555 38.785 19.7062 34.2815 19.7062C29.778 19.7062 26.1272 16.0555 26.1272 11.552C26.1272 7.0485 29.778 3.39771 34.2815 3.39771C38.785 3.39771 42.4358 7.0485 42.4358 11.552ZM20.0114 42.81C20.0114 47.3135 16.3606 50.9643 11.8572 50.9643C7.35367 50.9643 3.70288 47.3135 3.70288 42.81C3.70288 38.3065 7.35367 34.6557 11.8572 34.6557C16.3606 34.6557 20.0114 38.3065 20.0114 42.81ZM56.7056 50.9643C61.2091 50.9643 64.8599 47.3135 64.8599 42.81C64.8599 38.3065 61.2091 34.6557 56.7056 34.6557C52.2022 34.6557 48.5514 38.3065 48.5514 42.81C48.5514 47.3135 52.2022 50.9643 56.7056 50.9643Z" fill="#BAC8E2"/>
<path fill-rule="evenodd" clip-rule="evenodd" d="M18.1958 30.6267L24.5095 20.9529L26.7857 22.4385L20.472 32.1123L18.1958 30.6267ZM48.2115 32.4284L42.4356 22.4241L44.7895 21.0651L50.5654 31.0693L48.2115 32.4284ZM25.4475 44.8484L43.7946 44.8484V42.1303L25.4475 42.1303V44.8484Z" fill="#05488D"/>
<path fill-rule="evenodd" clip-rule="evenodd" d="M34.2814 22.1038C40.109 22.1038 44.8333 17.3795 44.8333 11.5519C44.8333 5.72424 40.109 1 34.2814 1C28.4538 1 23.7295 5.72424 23.7295 11.5519C23.7295 17.3795 28.4538 22.1038 34.2814 22.1038ZM34.2814 23.1038C40.6613 23.1038 45.8333 17.9318 45.8333 11.5519C45.8333 5.17196 40.6613 0 34.2814 0C27.9015 0 22.7295 5.17196 22.7295 11.5519C22.7295 17.9318 27.9015 23.1038 34.2814 23.1038ZM11.8571 53.3618C17.6847 53.3618 22.4089 48.6376 22.4089 42.8099C22.4089 36.9823 17.6847 32.258 11.8571 32.258C6.02942 32.258 1.30518 36.9823 1.30518 42.8099C1.30518 48.6376 6.02942 53.3618 11.8571 53.3618ZM11.8571 54.3618C18.237 54.3618 23.4089 49.1898 23.4089 42.8099C23.4089 36.43 18.237 31.258 11.8571 31.258C5.47713 31.258 0.305176 36.43 0.305176 42.8099C0.305176 49.1898 5.47713 54.3618 11.8571 54.3618ZM67.2574 42.8099C67.2574 48.6376 62.5332 53.3618 56.7055 53.3618C50.8779 53.3618 46.1537 48.6376 46.1537 42.8099C46.1537 36.9823 50.8779 32.258 56.7055 32.258C62.5332 32.258 67.2574 36.9823 67.2574 42.8099ZM68.2574 42.8099C68.2574 49.1898 63.0855 54.3618 56.7055 54.3618C50.3256 54.3618 45.1537 49.1898 45.1537 42.8099C45.1537 36.43 50.3256 31.258 56.7055 31.258C63.0855 31.258 68.2574 36.43 68.2574 42.8099Z" fill="#BAC8E2"/>
<circle cx="17.9727" cy="33.2967" r="2.71809" fill="#05488D"/>
<circle cx="50.5899" cy="33.2967" r="2.71809" fill="#05488D"/>
<circle cx="45.1536" cy="43.4895" r="2.71809" fill="#05488D"/>
<circle cx="23.409" cy="43.4895" r="2.71809" fill="#05488D"/>
<circle cx="26.8065" cy="19.7062" r="2.71809" fill="#05488D"/>
<circle cx="42.4356" cy="19.7062" r="2.71809" fill="#05488D"/>
</svg>
