<svg width="16" height="13" viewBox="0 0 16 13" fill="none" xmlns="http://www.w3.org/2000/svg">
<path d="M8.40991 7.23002C8.43879 6.70698 8.69549 6.24554 9.08183 5.91888C9.4611 5.59735 9.97194 5.40161 10.5283 5.40161C11.0854 5.40225 11.5956 5.59799 11.9749 5.91888C12.3612 6.24618 12.6179 6.70698 12.6474 7.23002C12.6769 7.76783 12.4607 8.26777 12.0814 8.63807C11.695 9.01479 11.1444 9.25161 10.5283 9.25161C9.91226 9.25161 9.36099 9.01479 8.97465 8.63807C8.59602 8.26777 8.38039 7.76783 8.40991 7.23002V7.23002Z" fill="#005385"/>
<path d="M5.03531 8.22696C5.03916 8.43104 5.10462 8.82894 5.20217 9.14019C5.40817 9.798 5.75729 10.407 6.24375 10.9436C6.74305 11.4948 7.35658 11.9376 8.06638 12.2515C8.81275 12.582 9.62074 12.7508 10.4595 12.7488C11.2983 12.7476 12.1063 12.5762 12.852 12.2431C13.5612 11.9255 14.1747 11.4814 14.6734 10.9288C15.1592 10.3897 15.5077 9.78003 15.7137 9.12222C15.8164 8.79428 15.8825 8.45607 15.9094 8.11401C15.9351 7.78029 15.9242 7.444 15.8773 7.11221C15.7849 6.46146 15.5597 5.85114 15.2131 5.29473C14.8954 4.78388 14.4873 4.33593 14.0014 3.95857L14.0021 3.95793L9.10026 0.194617C9.09641 0.191408 9.09192 0.187557 9.08807 0.184348C8.76526 -0.0620896 8.22489 -0.0614478 7.87128 0.186274C7.51317 0.436563 7.47274 0.850502 7.79041 1.1117L7.78913 1.11234L9.8338 2.7758L3.60031 2.78222H3.59197C3.07727 2.78286 2.58183 3.12107 2.48364 3.54784C2.38352 3.98296 2.73329 4.34363 3.26916 4.3462L3.26852 4.34813L6.42794 4.34171L0.790012 8.66914C0.782953 8.67491 0.775252 8.68005 0.768834 8.68518C0.23745 9.09206 0.0654566 9.76976 0.399818 10.1985C0.739954 10.6342 1.46259 10.6349 2.00039 10.2004L5.07702 7.68274C5.07702 7.68274 5.0321 8.02288 5.03531 8.22696V8.22696ZM12.9419 9.36481C12.3078 10.0117 11.4209 10.3775 10.4602 10.3788C9.4988 10.3807 8.61124 10.0175 7.97717 9.37251C7.6672 9.05805 7.44001 8.69737 7.29882 8.31167C7.16084 7.93303 7.10822 7.52808 7.14351 7.12697C7.17753 6.7355 7.29304 6.35493 7.48365 6.01094C7.66912 5.67466 7.9239 5.3711 8.23837 5.11439C8.85447 4.61189 9.63871 4.34042 10.4602 4.33914C11.2816 4.33786 12.0652 4.60804 12.682 5.10798C12.9958 5.36404 13.2506 5.66631 13.4354 6.00196C13.626 6.34594 13.7422 6.72587 13.7762 7.11735C13.8115 7.51909 13.7582 7.9234 13.6202 8.30269C13.479 8.68775 13.2512 9.04906 12.9419 9.36481V9.36481Z" fill="#FF7021"/>
</svg>
