<svg width="16" height="16" viewBox="0 0 16 16" fill="none" xmlns="http://www.w3.org/2000/svg">
<path d="M0 13.937C0 15.0765 0.923658 16 2.06305 16H13.937C15.0765 16 16 15.0763 16 13.937V2.06305C16 0.923533 15.0763 0 13.937 0H2.06305C0.923533 0 0 0.923658 0 2.06305V13.937Z" fill="#563D7C"/>
<path d="M6.6348 7.07738V4.81154H8.62929C8.81924 4.81154 9.00241 4.82737 9.17879 4.85903C9.35518 4.89068 9.51121 4.94722 9.64689 5.02862C9.78257 5.11003 9.89111 5.2231 9.97252 5.36782C10.0539 5.51255 10.0946 5.69797 10.0946 5.92411C10.0946 6.33115 9.97252 6.62512 9.72829 6.80602C9.48407 6.98693 9.17201 7.07738 8.79211 7.07738H6.6348ZM4.50464 3.15625V12.8438H9.19914C9.63332 12.8438 10.0562 12.7895 10.4677 12.6809C10.8793 12.5724 11.2456 12.4051 11.5667 12.1789C11.8879 11.9528 12.1434 11.6611 12.3333 11.3038C12.5233 10.9465 12.6183 10.5236 12.6183 10.0352C12.6183 9.42915 12.4713 8.91131 12.1773 8.48166C11.8833 8.05201 11.4379 7.75126 10.8409 7.57939C11.275 7.37135 11.6029 7.10452 11.8245 6.77889C12.0462 6.45325 12.157 6.04622 12.157 5.55777C12.157 5.10551 12.0823 4.72561 11.9331 4.41807C11.7838 4.11053 11.5735 3.86404 11.3022 3.67862C11.0308 3.49319 10.7052 3.35977 10.3253 3.27836C9.94538 3.19695 9.52478 3.15625 9.06347 3.15625H4.50464ZM6.6348 11.1885V8.52915H8.95492C9.41623 8.52915 9.78709 8.63543 10.0675 8.848C10.3479 9.06056 10.4881 9.41558 10.4881 9.91308C10.4881 10.1663 10.4451 10.3744 10.3592 10.5372C10.2733 10.7 10.1579 10.8289 10.0132 10.9239C9.86849 11.0189 9.70116 11.0867 9.51121 11.1274C9.32125 11.1681 9.12226 11.1885 8.91422 11.1885H6.6348Z" fill="white"/>
</svg>
