<svg width="16" height="16" viewBox="0 0 16 16" fill="none" xmlns="http://www.w3.org/2000/svg">
<path d="M2.25 14.375L0.9375 0H15.0312L13.75 14.375L8 16" fill="#264DE4"/>
<path d="M8 1.15625V14.75L12.6562 13.4688L13.75 1.15625" fill="#2965F1"/>
<path d="M3.5625 2.9375H8V4.6875H3.71875L3.5625 2.9375ZM3.875 6.5H8V8.28125H4.03125L3.875 6.5ZM4.125 9.15625H5.875L6 10.5625L8 11.0938V12.9375L4.34375 11.9375" fill="#EBEBEB"/>
<path d="M8 6.5V8.28125H10.1562L9.9375 10.5625L8 11.0938V12.9375L11.5938 11.9375L12.4062 2.9375H8V4.6875H10.5L10.3281 6.5H8Z" fill="white"/>
</svg>
