<svg width="10" height="15" viewBox="0 0 10 15" fill="none" xmlns="http://www.w3.org/2000/svg">
<path d="M7.49996 9.99967C8.88065 9.99967 9.99992 8.8804 9.99992 7.49971C9.99992 6.11903 8.88065 4.99976 7.49996 4.99976C6.11927 4.99976 5 6.11903 5 7.49971C5 8.8804 6.11927 9.99967 7.49996 9.99967Z" fill="#19BCFE"/>
<path fill-rule="evenodd" clip-rule="evenodd" d="M2.49996 14.9997C3.88065 14.9997 4.99992 13.8804 4.99992 12.4997C4.99992 11.119 3.88065 9.99976 2.49996 9.99976C1.11927 9.99976 0 11.119 0 12.4997C0 13.8804 1.11927 14.9997 2.49996 14.9997Z" fill="#09CF83"/>
<path fill-rule="evenodd" clip-rule="evenodd" d="M2.49996 9.99967C3.88065 9.99967 4.99992 8.8804 4.99992 7.49971C4.99992 6.11903 3.88065 4.99976 2.49996 4.99976C1.11927 4.99976 0 6.11903 0 7.49971C0 8.8804 1.11927 9.99967 2.49996 9.99967Z" fill="#A259FF"/>
<path fill-rule="evenodd" clip-rule="evenodd" d="M2.49996 4.99992C3.88065 4.99992 4.99992 3.88065 4.99992 2.49996C4.99992 1.11927 3.88065 0 2.49996 0C1.11927 0 0 1.11927 0 2.49996C0 3.88065 1.11927 4.99992 2.49996 4.99992Z" fill="#F24E1E"/>
<path fill-rule="evenodd" clip-rule="evenodd" d="M7.49996 4.99992C6.11927 4.99992 5 3.88065 5 2.49996C5 1.11927 6.11927 0 7.49996 0C8.88065 0 9.99992 1.11927 9.99992 2.49996C9.99992 3.88065 8.88065 4.99992 7.49996 4.99992Z" fill="#FF7262"/>
</svg>
