<svg width="16" height="16" viewBox="0 0 16 16" fill="none" xmlns="http://www.w3.org/2000/svg">
<rect y="8" width="11.3137" height="11.3137" rx="5" transform="rotate(-45 0 8)" fill="#F8FAFF"/>
<path d="M15.5869 7.31017L8.82724 0.55104C8.43824 0.161698 7.80683 0.161698 7.41732 0.55104L7.11224 0.856125C6.50552 1.46284 6.50552 2.44651 7.11224 3.05323C7.52994 3.47094 8.20764 3.53306 8.72957 3.80974C8.83121 3.86361 8.92668 3.93339 9.0124 4.01911C9.039 4.04575 9.06406 4.07333 9.08759 4.10175C9.56111 4.67368 9.62686 5.57787 10.1519 6.10291C10.6768 6.62776 11.5808 6.69292 12.1523 7.16652C12.1809 7.19025 12.2087 7.21554 12.2355 7.24239C12.6989 7.70563 12.6989 8.45646 12.2355 8.92003C11.7719 9.38361 11.0211 9.38361 10.5574 8.92003C10.3326 8.69507 10.217 8.40231 10.2105 8.1076C10.204 7.81123 10.1627 7.4932 9.95305 7.28358C9.49019 6.82072 8.69878 7.14852 8.69875 7.8031L8.69867 9.85335C8.69866 10.0907 8.84429 10.2977 9.0124 10.4652C9.47581 10.9284 9.47581 11.6792 9.0124 12.1431C8.54883 12.6066 7.79766 12.6066 7.33476 12.1431C6.87136 11.6792 6.87136 10.9284 7.33476 10.4652C7.53588 10.2644 7.72309 10.0207 7.72309 9.73653V6.42547C7.72309 6.14131 7.53525 5.89812 7.33476 5.69675C7.23581 5.59793 7.15803 5.48604 7.10139 5.36664C6.84313 4.82226 6.80102 4.12164 6.375 3.69554C5.79457 3.115 4.8534 3.11493 4.27288 3.6954L0.689107 7.27892C0.299595 7.6686 0.299595 8.3 0.689107 8.68935L7.44875 15.4486C7.83792 15.838 8.46916 15.838 8.85884 15.4486L15.5869 8.72077C15.9762 8.33126 15.9762 7.69951 15.5869 7.31017Z" fill="#DE4C36"/>
</svg>
