<svg width="252" height="253" viewBox="0 0 252 253" fill="none" xmlns="http://www.w3.org/2000/svg">
<path d="M147.896 50.0162C110.841 48.5241 94.1273 74.2782 90.4347 81.8682C81.2357 100.616 76.118 123.192 59.0805 135.193C50.7237 141.096 40.2291 143.691 32.3905 150.243C25.5884 155.887 21.1833 164.32 20.4059 173.143C19.3046 186.247 26.4954 198.832 36.083 207.784C87.4548 255.53 156.317 236.068 177.695 223.548C239.562 187.22 226.605 124.813 211.965 95.621C201.794 75.4459 177.242 51.1839 147.896 50.0162Z" fill="#0047FF"/>
<path d="M57.9145 118.975H21.8312C19.6286 118.975 18.2034 117.223 18.5921 115.018L21.7016 97.5023C22.0903 95.2967 24.1633 93.5451 26.3659 93.5451H62.4492C64.6518 93.5451 66.077 95.2967 65.6883 97.5023L62.5788 115.018C62.1901 117.223 60.1171 118.975 57.9145 118.975Z" fill="url(#paint0_linear_255_221)"/>
<path d="M24.0985 103.276L22.2847 113.655C22.1551 114.369 22.6086 114.953 23.3859 114.953H57.8497C58.5623 114.953 59.2749 114.369 59.4044 113.655L62.1253 98.2808C62.1253 98.2808 58.8862 96.9185 54.8697 100.746C50.8533 104.573 48.3916 108.985 45.2821 108.79C42.1726 108.595 41.1361 103.081 37.314 103.146C33.1679 103.211 30.5767 107.817 28.8276 106.195C27.9206 105.417 25.9124 102.238 24.0985 103.276Z" fill="#0047FF"/>
<path d="M116.801 181.446C116.801 182.29 116.088 183.003 115.246 183.003C114.404 183.003 113.691 182.29 113.691 181.446C113.691 180.603 114.404 179.889 115.246 179.889C116.088 179.889 116.801 180.538 116.801 181.446Z" fill="url(#paint1_radial_255_221)"/>
<path d="M159.362 117.677C160.221 117.677 160.917 116.98 160.917 116.121C160.917 115.261 160.221 114.564 159.362 114.564C158.504 114.564 157.808 115.261 157.808 116.121C157.808 116.98 158.504 117.677 159.362 117.677Z" fill="url(#paint2_radial_255_221)"/>
<path d="M94.1273 118.975C95.7015 118.975 96.9776 117.697 96.9776 116.121C96.9776 114.544 95.7015 113.266 94.1273 113.266C92.553 113.266 91.2769 114.544 91.2769 116.121C91.2769 117.697 92.553 118.975 94.1273 118.975Z" fill="url(#paint3_radial_255_221)"/>
<path d="M191.947 118.975C193.521 118.975 194.798 117.697 194.798 116.121C194.798 114.544 193.521 113.266 191.947 113.266C190.373 113.266 189.097 114.544 189.097 116.121C189.097 117.697 190.373 118.975 191.947 118.975Z" fill="url(#paint4_radial_255_221)"/>
<path d="M174.715 216.931C176.289 216.931 177.566 215.653 177.566 214.077C177.566 212.501 176.289 211.223 174.715 211.223C173.141 211.223 171.865 212.501 171.865 214.077C171.865 215.653 173.141 216.931 174.715 216.931Z" fill="url(#paint5_radial_255_221)"/>
<path d="M76.8953 216.931C78.4695 216.931 79.7457 215.653 79.7457 214.077C79.7457 212.501 78.4695 211.223 76.8953 211.223C75.3211 211.223 74.0449 212.501 74.0449 214.077C74.0449 215.653 75.3211 216.931 76.8953 216.931Z" fill="url(#paint6_radial_255_221)"/>
<path d="M109.481 215.634C110.339 215.634 111.035 214.937 111.035 214.077C111.035 213.217 110.339 212.52 109.481 212.52C108.622 212.52 107.926 213.217 107.926 214.077C107.926 214.937 108.622 215.634 109.481 215.634Z" fill="url(#paint7_radial_255_221)"/>
<path d="M143.685 214.077C143.685 214.92 142.973 215.634 142.13 215.634C141.288 215.634 140.576 214.92 140.576 214.077C140.576 213.234 141.288 212.52 142.13 212.52C142.973 212.52 143.685 213.234 143.685 214.077Z" fill="url(#paint8_radial_255_221)"/>
<path d="M182.036 181.446C182.036 182.29 181.323 183.003 180.481 183.003C179.639 183.003 178.926 182.29 178.926 181.446C178.926 180.603 179.639 179.889 180.481 179.889C181.323 179.825 182.036 180.538 182.036 181.446Z" fill="url(#paint9_radial_255_221)"/>
<path d="M186.247 150.308C187.105 150.308 187.801 149.611 187.801 148.751C187.801 147.891 187.105 147.194 186.247 147.194C185.388 147.194 184.692 147.891 184.692 148.751C184.692 149.611 185.388 150.308 186.247 150.308Z" fill="url(#paint10_radial_255_221)"/>
<path d="M84.2155 181.446C84.2155 182.29 83.5029 183.003 82.6607 183.003C81.8186 183.003 81.106 182.29 81.106 181.446C81.106 180.603 81.8186 179.889 82.6607 179.889C83.5029 179.889 84.2155 180.538 84.2155 181.446Z" fill="url(#paint11_radial_255_221)"/>
<path d="M88.4263 150.308C89.285 150.308 89.9811 149.611 89.9811 148.751C89.9811 147.891 89.285 147.194 88.4263 147.194C87.5677 147.194 86.8716 147.891 86.8716 148.751C86.8716 149.611 87.5677 150.308 88.4263 150.308Z" fill="url(#paint12_radial_255_221)"/>
<path d="M126.777 117.677C127.636 117.677 128.332 116.98 128.332 116.121C128.332 115.261 127.636 114.564 126.777 114.564C125.918 114.564 125.222 115.261 125.222 116.121C125.222 116.98 125.918 117.677 126.777 117.677Z" fill="url(#paint13_radial_255_221)"/>
<path d="M120.947 150.308C121.806 150.308 122.502 149.611 122.502 148.751C122.502 147.891 121.806 147.194 120.947 147.194C120.088 147.194 119.392 147.891 119.392 148.751C119.392 149.611 120.088 150.308 120.947 150.308Z" fill="url(#paint14_radial_255_221)"/>
<path d="M155.151 148.751C155.151 149.594 154.439 150.308 153.597 150.308C152.755 150.308 152.042 149.594 152.042 148.751C152.042 147.908 152.755 147.194 153.597 147.194C154.439 147.194 155.151 147.908 155.151 148.751Z" fill="url(#paint15_radial_255_221)"/>
<path d="M149.386 181.446C149.386 182.29 148.673 183.003 147.831 183.003C146.989 183.003 146.276 182.29 146.276 181.446C146.276 180.603 146.989 179.889 147.831 179.889C148.673 179.889 149.386 180.538 149.386 181.446Z" fill="url(#paint16_radial_255_221)"/>
<path d="M148.868 39.961C148.479 39.8961 148.026 39.8961 147.572 39.8961H90.6939C83.5031 39.8961 76.6363 45.7346 75.3407 52.9354L51.5659 187.869C51.1124 190.269 51.4363 192.539 51.4363 192.539C51.4363 192.539 53.315 206.422 66.7247 206.292H123.668C130.858 206.292 137.725 200.454 139.021 193.253L162.796 58.3197C162.86 57.8008 162.925 57.3467 162.99 56.8277C165.646 40.8044 148.868 39.961 148.868 39.961Z" fill="url(#paint17_linear_255_221)"/>
<path d="M148.868 39.961C148.479 39.8961 148.026 39.8961 147.572 39.8961H90.6939C83.5031 39.8961 76.6363 45.7346 75.3407 52.9354L51.5659 187.869C51.1124 190.269 51.4363 192.539 51.4363 192.539C51.4363 192.539 53.315 206.422 66.7247 206.292H123.668C130.858 206.292 137.725 200.454 139.021 193.253L162.796 58.3197C162.86 57.8008 162.925 57.3467 162.99 56.8277C165.646 40.8044 148.868 39.961 148.868 39.961Z" fill="url(#paint18_linear_255_221)"/>
<g opacity="0.75">
<path opacity="0.75" d="M148.868 39.961C148.479 39.8961 148.026 39.8961 147.572 39.8961H90.6939C83.5031 39.8961 76.6363 45.7346 75.3407 52.9354L51.5659 187.869C51.1124 190.269 51.4363 192.539 51.4363 192.539C51.4363 192.539 53.315 206.422 66.7247 206.292H123.668C130.858 206.292 137.725 200.454 139.021 193.253L162.796 58.3197C162.86 57.8008 162.925 57.3467 162.99 56.8277C165.646 40.8044 148.868 39.961 148.868 39.961Z" fill="#D0DFF2"/>
</g>
<path d="M119.392 199.805H63.1617C56.0357 199.805 51.3067 194.032 52.5375 186.896L76.0532 53.5192C77.2841 46.3833 84.0861 40.6097 91.2121 40.6097H147.442C154.568 40.6097 159.297 46.3833 158.067 53.5192L134.551 186.896C133.32 194.032 126.518 199.805 119.392 199.805Z" fill="#F9FAFD"/>
<path d="M155.475 53.7787L132.089 186.506C131.053 192.539 125.287 197.405 119.327 197.405H64.0687C58.044 197.405 54.0923 192.539 55.1288 186.506L78.5149 53.7787C79.6162 47.6159 85.4466 42.6208 91.6008 42.6208H96.0059C97.2368 42.6208 98.2085 43.3992 98.4029 44.5669L99.245 48.9782C99.4394 50.0161 100.346 50.7297 101.448 50.7297H133.644C134.745 50.7297 135.847 50.0161 136.43 48.9782L138.827 44.5669C139.474 43.3992 140.705 42.6208 141.936 42.6208H146.341C152.495 42.6208 156.577 47.6159 155.475 53.7787Z" fill="url(#paint19_linear_255_221)"/>
<path d="M126 47.4862H107.926C107.213 47.4862 106.76 46.9023 106.889 46.2536C107.019 45.54 107.667 45.021 108.379 45.021H126.453C127.166 45.021 127.619 45.6049 127.49 46.2536C127.36 46.9672 126.712 47.4862 126 47.4862Z" fill="#0047FF"/>
<path d="M131.895 46.2536C131.765 46.9672 131.117 47.4862 130.405 47.4862C129.692 47.4862 129.239 46.9023 129.368 46.2536C129.498 45.54 130.146 45.021 130.858 45.021C131.571 45.021 132.024 45.6049 131.895 46.2536Z" fill="#0047FF"/>
<path d="M157.872 72.0726V71.878H157.16C156.318 71.878 155.54 72.5267 155.411 73.37L152.107 91.9882C151.977 92.7018 151.977 94.0641 153.402 94.1939C153.662 94.1939 153.921 94.1939 154.18 94.1939L154.05 93.4154V93.2208C154.568 92.9613 154.957 92.5072 155.087 91.9233L158.391 73.3051C158.585 72.7862 158.326 72.3321 157.872 72.0726Z" fill="url(#paint20_linear_255_221)"/>
<path d="M154.18 94.1938C152.949 93.9992 152.754 92.7667 152.949 91.9882L156.253 73.37C156.382 72.5267 157.16 71.878 158.002 71.878C158.844 71.878 159.427 73.3051 159.233 74.0836L155.929 92.7018C155.799 93.5451 155.022 94.3236 154.18 94.1938Z" fill="#F9FAFD"/>
<path d="M130.082 148.362H69.5109C67.697 148.362 66.4661 146.87 66.79 145.053L77.5438 84.009C77.8677 82.1926 79.6168 80.7005 81.4954 80.7005H142.066C143.88 80.7005 145.111 82.1926 144.787 84.009L134.033 145.053C133.709 146.87 131.96 148.362 130.082 148.362Z" fill="url(#paint21_linear_255_221)"/>
<g filter="url(#filter0_d_255_221)">
<path d="M115.7 137.528H55.129C53.3152 137.528 52.0843 136.036 52.4082 134.22L63.1619 73.1754C63.4858 71.359 65.2349 69.8669 67.1136 69.8669H127.62C129.433 69.8669 130.664 71.359 130.34 73.1754L119.587 134.22C119.263 136.036 117.514 137.528 115.7 137.528Z" fill="white"/>
</g>
<path d="M112.331 132.857H60.1823C58.6276 132.857 57.5263 131.56 57.8502 130.003L67.1139 77.4569C67.3731 75.9 68.9278 74.6025 70.4826 74.6025H122.632C124.186 74.6025 125.288 75.9 124.964 77.4569L115.7 130.003C115.376 131.56 113.886 132.857 112.331 132.857Z" fill="url(#paint22_linear_255_221)"/>
<path d="M107.278 88.031C106.63 91.6638 103.197 94.6479 99.5042 94.6479C95.8764 94.6479 93.4147 91.6638 94.0625 88.031C94.7103 84.3982 98.1438 81.4141 101.836 81.4141C105.529 81.4141 107.926 84.3982 107.278 88.031Z" fill="url(#paint23_linear_255_221)"/>
<path d="M105.788 163.347L104.622 170.159C104.493 170.937 103.78 171.521 103.003 171.521H74.8228C73.7863 171.521 73.0089 170.613 73.2032 169.575L74.3045 163.282C74.4341 162.504 75.1467 161.92 75.9241 161.92H104.622C105.335 161.92 105.918 162.634 105.788 163.347Z" fill="white"/>
<path d="M80.5103 166.807C80.7097 166.876 80.851 166.992 80.9343 167.155C81.0187 167.315 81.0282 167.515 80.9628 167.754C80.8727 168.084 80.6712 168.34 80.3584 168.522C80.0466 168.699 79.6387 168.788 79.1347 168.788H77.1712L78.2108 164.978H80.0615C80.5279 164.978 80.8628 165.067 81.0663 165.245C81.2708 165.419 81.331 165.66 81.2468 165.969C81.1953 166.158 81.1047 166.324 80.9748 166.47C80.8449 166.615 80.6901 166.727 80.5103 166.807ZM78.7928 165.533L78.5062 166.584H79.5443C79.8001 166.584 80.0076 166.54 80.1668 166.453C80.3307 166.363 80.4359 166.232 80.4825 166.061C80.53 165.887 80.496 165.757 80.3806 165.669C80.27 165.579 80.0868 165.533 79.831 165.533H78.7928ZM79.241 168.233C79.809 168.233 80.143 168.05 80.243 167.683C80.343 167.317 80.109 167.134 79.541 167.134H78.3562L78.0562 168.233H79.241ZM83.1469 168.843C82.6015 168.843 82.2165 168.696 81.992 168.402C81.7685 168.104 81.7321 167.68 81.8826 167.128L82.4692 164.978H83.2027L82.6235 167.101C82.4195 167.849 82.6523 168.222 83.3218 168.222C83.9876 168.222 84.4225 167.849 84.6264 167.101L85.2057 164.978H85.9279L85.3412 167.128C85.1907 167.68 84.9225 168.104 84.5367 168.402C84.1555 168.696 83.6923 168.843 83.1469 168.843ZM87.5213 165.577H86.2123L86.3757 164.978H89.7271L89.5638 165.577H88.2548L87.3785 168.788H86.645L87.5213 165.577ZM90.9705 165.577H89.6615L89.8249 164.978H93.1764L93.013 165.577H91.704L90.8277 168.788H90.0942L90.9705 165.577ZM94.4622 168.843C94.0597 168.843 93.7195 168.759 93.4416 168.592C93.1646 168.422 92.9746 168.188 92.8715 167.89C92.7694 167.589 92.7688 167.253 92.8698 166.883C92.9708 166.513 93.154 166.179 93.4195 165.882C93.686 165.581 94.0038 165.346 94.3728 165.18C94.7428 165.009 95.1291 164.924 95.5316 164.924C95.934 164.924 96.2737 165.009 96.5507 165.18C96.8286 165.346 97.0192 165.579 97.1223 165.876C97.2254 166.174 97.226 166.51 97.124 166.883C97.022 167.257 96.8383 167.593 96.5728 167.89C96.3073 168.188 95.9895 168.422 95.6195 168.592C95.2504 168.759 94.8647 168.843 94.4622 168.843ZM94.6315 168.222C94.8948 168.222 95.1471 168.166 95.3885 168.054C95.6308 167.937 95.8399 167.778 96.0157 167.575C96.1925 167.368 96.3156 167.137 96.3849 166.883C96.4542 166.629 96.4564 166.401 96.3914 166.197C96.3275 165.991 96.2056 165.831 96.0256 165.718C95.8467 165.602 95.6255 165.544 95.3622 165.544C95.0989 165.544 94.8461 165.602 94.6038 165.718C94.3625 165.831 94.1534 165.991 93.9766 166.197C93.8008 166.401 93.6782 166.629 93.6089 166.883C93.5396 167.137 93.5369 167.368 93.6008 167.575C93.6658 167.778 93.7877 167.937 93.9667 168.054C94.1466 168.166 94.3682 168.222 94.6315 168.222ZM101.931 164.978L100.891 168.788H100.287L98.8135 166.208L98.1095 168.788H97.3816L98.4213 164.978H99.025L100.499 167.558L101.203 164.978H101.931Z" fill="#0047FF"/>
<path d="M126.129 156.665C126 157.314 125.482 157.768 124.834 157.768H72.1017C71.2596 157.768 70.6765 156.99 70.8061 156.211C70.9357 155.563 71.4539 155.108 72.1017 155.108H124.834C125.611 155.108 126.259 155.822 126.129 156.665Z" fill="white"/>
<path d="M102.549 156.536C102.484 156.86 102.161 157.119 101.837 157.119H72.2315C71.778 157.119 71.3893 156.73 71.5189 156.276C71.5837 155.952 71.9076 155.692 72.2315 155.692H101.837C102.29 155.692 102.614 156.082 102.549 156.536Z" fill="#5096FF"/>
<path d="M175.039 178.138C174.65 177.359 173.679 175.997 171.735 175.154C170.245 174.44 168.626 174.505 168.626 174.505H114.922C111.229 174.505 107.666 177.489 107.019 181.187C106.759 182.809 107.019 184.301 107.796 185.468L108.832 186.96C109.804 188.323 111.424 189.166 113.432 189.166H166.941C171.282 189.166 174.456 186.182 175.363 182.874C176.076 180.344 175.298 178.657 175.039 178.138Z" fill="url(#paint24_linear_255_221)"/>
<path d="M166.099 187.804H112.784C109.157 187.804 106.76 184.885 107.407 181.252C108.055 177.619 111.489 174.7 115.116 174.7H168.432C172.059 174.7 174.456 177.619 173.808 181.252C173.161 184.82 169.727 187.804 166.099 187.804Z" fill="#DBEBFF"/>
<path d="M172.253 181.252C171.735 184.171 168.95 186.571 166.034 186.571C163.119 186.571 161.176 184.171 161.694 181.252C162.212 178.333 164.998 175.932 167.913 175.932C170.828 175.932 172.772 178.268 172.253 181.252Z" fill="url(#paint25_linear_255_221)"/>
<path d="M113.621 184.457C113.27 184.457 112.939 184.405 112.629 184.3C112.324 184.19 112.093 184.05 111.936 183.879L112.273 183.367C112.423 183.525 112.627 183.654 112.885 183.755C113.148 183.851 113.426 183.899 113.719 183.899C114.106 183.899 114.406 183.836 114.62 183.709C114.834 183.577 114.96 183.405 114.997 183.19C115.025 183.033 114.994 182.906 114.905 182.809C114.82 182.709 114.705 182.632 114.558 182.58C114.417 182.527 114.211 182.468 113.943 182.402C113.607 182.319 113.337 182.236 113.134 182.153C112.935 182.07 112.773 181.943 112.647 181.772C112.527 181.597 112.493 181.363 112.544 181.07C112.588 180.824 112.691 180.603 112.854 180.406C113.022 180.21 113.25 180.052 113.538 179.934C113.825 179.816 114.166 179.757 114.562 179.757C114.838 179.757 115.102 179.792 115.357 179.862C115.611 179.932 115.822 180.032 115.99 180.164L115.678 180.689C115.504 180.566 115.311 180.474 115.1 180.413C114.889 180.347 114.677 180.315 114.464 180.315C114.086 180.315 113.79 180.382 113.575 180.518C113.364 180.654 113.24 180.829 113.202 181.043C113.175 181.201 113.205 181.33 113.294 181.431C113.384 181.527 113.501 181.604 113.647 181.66C113.798 181.713 114.003 181.77 114.263 181.831C114.6 181.914 114.867 181.997 115.066 182.081C115.265 182.164 115.425 182.291 115.546 182.461C115.671 182.632 115.709 182.862 115.658 183.151C115.615 183.391 115.51 183.612 115.341 183.814C115.173 184.011 114.943 184.168 114.651 184.286C114.36 184.4 114.017 184.457 113.621 184.457ZM119.813 182.685C119.805 182.733 119.789 182.796 119.767 182.875H116.9C116.886 183.181 116.978 183.429 117.176 183.617C117.379 183.801 117.654 183.893 118.001 183.893C118.423 183.893 118.788 183.753 119.095 183.472L119.376 183.879C119.184 184.063 118.959 184.203 118.702 184.3C118.45 184.396 118.177 184.444 117.884 184.444C117.51 184.444 117.193 184.37 116.93 184.221C116.668 184.068 116.481 183.855 116.369 183.584C116.261 183.313 116.237 183.006 116.297 182.665C116.356 182.328 116.486 182.024 116.684 181.752C116.888 181.481 117.136 181.271 117.429 181.122C117.727 180.969 118.045 180.892 118.382 180.892C118.72 180.892 119.007 180.969 119.242 181.122C119.482 181.271 119.652 181.481 119.751 181.752C119.854 182.024 119.875 182.334 119.813 182.685ZM118.289 181.424C117.982 181.424 117.708 181.516 117.467 181.7C117.23 181.884 117.068 182.124 116.98 182.422H119.246C119.262 182.129 119.182 181.89 119.006 181.706C118.834 181.518 118.595 181.424 118.289 181.424ZM122.206 180.892C122.695 180.892 123.048 181.01 123.264 181.247C123.484 181.483 123.554 181.836 123.471 182.304L123.101 184.405H122.495L122.576 183.945C122.44 184.107 122.265 184.232 122.05 184.319C121.84 184.402 121.599 184.444 121.328 184.444C120.932 184.444 120.631 184.35 120.424 184.162C120.222 183.974 120.148 183.726 120.202 183.42C120.256 183.114 120.412 182.868 120.671 182.685C120.931 182.496 121.307 182.402 121.801 182.402H122.814L122.836 182.278C122.884 182.006 122.84 181.798 122.706 181.654C122.571 181.509 122.348 181.437 122.037 181.437C121.828 181.437 121.618 181.472 121.405 181.542C121.194 181.608 121.009 181.698 120.851 181.811L120.668 181.339C120.876 181.194 121.113 181.085 121.379 181.01C121.646 180.932 121.922 180.892 122.206 180.892ZM121.52 183.958C121.764 183.958 121.985 183.906 122.181 183.801C122.378 183.691 122.534 183.538 122.649 183.341L122.734 182.855H121.748C121.205 182.855 120.903 183.035 120.84 183.394C120.809 183.569 120.853 183.707 120.973 183.807C121.093 183.908 121.276 183.958 121.52 183.958ZM125.409 181.509C125.555 181.308 125.746 181.155 125.983 181.05C126.219 180.945 126.493 180.892 126.804 180.892L126.696 181.503C126.661 181.498 126.613 181.496 126.551 181.496C126.204 181.496 125.913 181.599 125.676 181.805C125.446 182.006 125.297 182.295 125.231 182.671L124.926 184.405H124.286L124.898 180.925H125.511L125.409 181.509ZM128.475 184.444C128.115 184.444 127.806 184.367 127.548 184.214C127.295 184.061 127.112 183.851 126.999 183.584C126.887 183.313 126.861 183.006 126.921 182.665C126.981 182.324 127.115 182.019 127.322 181.752C127.53 181.481 127.787 181.271 128.093 181.122C128.404 180.969 128.74 180.892 129.1 180.892C129.42 180.892 129.693 180.956 129.92 181.083C130.15 181.21 130.314 181.393 130.409 181.634L129.868 181.943C129.786 181.776 129.67 181.652 129.521 181.569C129.371 181.485 129.196 181.444 128.996 181.444C128.765 181.444 128.547 181.494 128.343 181.595C128.143 181.695 127.973 181.84 127.833 182.028C127.699 182.212 127.61 182.424 127.568 182.665C127.525 182.91 127.538 183.127 127.607 183.315C127.681 183.499 127.8 183.641 127.965 183.742C128.134 183.842 128.334 183.893 128.565 183.893C128.765 183.893 128.954 183.851 129.134 183.768C129.313 183.685 129.472 183.56 129.613 183.394L130.046 183.696C129.866 183.936 129.638 184.122 129.361 184.254C129.09 184.381 128.795 184.444 128.475 184.444ZM133.209 180.892C133.658 180.892 133.991 181.021 134.208 181.28C134.429 181.534 134.497 181.908 134.41 182.402L134.057 184.405H133.417L133.757 182.475C133.817 182.137 133.779 181.884 133.645 181.713C133.51 181.542 133.29 181.457 132.983 181.457C132.636 181.457 132.345 181.558 132.11 181.759C131.875 181.956 131.725 182.24 131.66 182.612L131.344 184.405H130.704L131.562 179.533H132.202L131.87 181.418C132.033 181.251 132.229 181.122 132.458 181.03C132.692 180.938 132.942 180.892 133.209 180.892ZM135.388 184.444C135.264 184.444 135.164 184.402 135.09 184.319C135.017 184.232 134.991 184.122 135.015 183.991C135.037 183.864 135.1 183.759 135.203 183.676C135.308 183.588 135.422 183.545 135.546 183.545C135.671 183.545 135.768 183.586 135.838 183.669C135.908 183.753 135.931 183.86 135.908 183.991C135.885 184.122 135.821 184.232 135.717 184.319C135.618 184.402 135.508 184.444 135.388 184.444ZM136.898 184.444C136.774 184.444 136.675 184.402 136.6 184.319C136.527 184.232 136.502 184.122 136.525 183.991C136.547 183.864 136.61 183.759 136.714 183.676C136.818 183.588 136.932 183.545 137.057 183.545C137.181 183.545 137.278 183.586 137.348 183.669C137.418 183.753 137.441 183.86 137.418 183.991C137.395 184.122 137.331 184.232 137.227 184.319C137.128 184.402 137.018 184.444 136.898 184.444ZM138.409 184.444C138.284 184.444 138.185 184.402 138.111 184.319C138.037 184.232 138.012 184.122 138.035 183.991C138.057 183.864 138.12 183.759 138.224 183.676C138.328 183.588 138.443 183.545 138.567 183.545C138.691 183.545 138.789 183.586 138.858 183.669C138.928 183.753 138.951 183.86 138.928 183.991C138.905 184.122 138.842 184.232 138.737 184.319C138.638 184.402 138.529 184.444 138.409 184.444Z" fill="#0047FF"/>
<path d="M168.885 178.657C167.978 177.554 166.164 177.554 164.868 178.657C163.573 179.76 163.249 181.576 164.156 182.679C164.998 183.652 166.553 183.782 167.783 183.003L168.755 184.171C168.885 184.366 169.209 184.366 169.403 184.171C169.597 183.976 169.662 183.717 169.532 183.522L168.561 182.355C169.532 181.252 169.727 179.695 168.885 178.657ZM167.654 182.095C166.747 182.874 165.516 182.874 164.933 182.095C164.285 181.317 164.544 180.084 165.386 179.371C166.293 178.592 167.524 178.592 168.107 179.371C168.755 180.084 168.561 181.317 167.654 182.095Z" fill="white"/>
<path d="M194.603 131.819H184.886C180.351 131.819 177.242 128.122 178.084 123.516L179.833 113.785C180.611 109.244 185.016 105.482 189.55 105.482H199.268C203.802 105.482 206.912 109.179 206.07 113.785L204.321 123.516C203.543 128.122 199.203 131.819 194.603 131.819Z" fill="url(#paint26_linear_255_221)"/>
<path d="M192.725 128.706H183.979C179.898 128.706 177.112 125.397 177.89 121.245L179.444 112.488C180.157 108.401 184.109 105.027 188.19 105.027H196.935C201.017 105.027 203.802 108.336 203.025 112.488L201.47 121.31C200.757 125.397 196.806 128.706 192.725 128.706Z" fill="url(#paint27_linear_255_221)"/>
<g opacity="0.8">
<path opacity="0.8" d="M192.725 128.706H183.979C179.898 128.706 177.112 125.397 177.89 121.245L179.444 112.488C180.157 108.401 184.109 105.027 188.19 105.027H196.935C201.017 105.027 203.802 108.336 203.025 112.488L201.47 121.31C200.757 125.397 196.806 128.706 192.725 128.706Z" fill="#C6E0FF"/>
</g>
<path d="M197 116.704L191.883 110.347C191.753 110.152 191.494 110.152 191.299 110.347L183.914 116.704C183.785 116.834 183.85 117.029 183.979 117.029H185.08C185.34 117.029 185.469 117.223 185.404 117.483L184.497 122.608C184.497 122.802 184.562 122.932 184.757 122.932H187.413C187.607 122.932 187.736 122.802 187.801 122.608L188.384 119.429C188.384 119.299 188.514 119.169 188.643 119.169H191.429C191.559 119.169 191.623 119.299 191.623 119.429L191.04 122.608C191.04 122.802 191.105 122.932 191.299 122.932H193.956C194.15 122.932 194.279 122.802 194.344 122.608L195.251 117.483C195.316 117.223 195.51 117.029 195.769 117.029H196.871C197 117.029 197.13 116.834 197 116.704Z" fill="#0047FF"/>
<path d="M38.2206 162.179H28.5034C23.9687 162.179 20.8591 158.482 21.7013 153.876L23.4504 144.145C24.2278 139.604 28.6329 135.842 33.1676 135.842H42.8848C47.4196 135.842 50.5291 139.539 49.6869 144.145L47.9378 153.876C47.1604 158.417 42.8201 162.179 38.2206 162.179Z" fill="url(#paint28_linear_255_221)"/>
<path d="M36.3421 159.066H27.5318C23.4506 159.066 20.6649 155.757 21.4423 151.605L22.9971 142.848C23.7097 138.761 27.6614 135.387 31.7426 135.387H40.4881C44.5693 135.387 47.3549 138.696 46.5775 142.848L45.0228 151.605C44.3102 155.692 40.4233 159.066 36.3421 159.066Z" fill="url(#paint29_linear_255_221)"/>
<g opacity="0.8">
<path opacity="0.8" d="M36.3421 159.066H27.5318C23.4506 159.066 20.6649 155.757 21.4423 151.605L22.9971 142.848C23.7097 138.761 27.6614 135.387 31.7426 135.387H40.4881C44.5693 135.387 47.3549 138.696 46.5775 142.848L45.0228 151.605C44.3102 155.692 40.4233 159.066 36.3421 159.066Z" fill="#C6E0FF"/>
</g>
<path d="M32.455 142.394L39.257 146.74C39.5809 146.935 39.4514 147.454 39.1275 147.648L30.8354 151.995C30.4467 152.189 30.0581 151.93 30.1228 151.541L31.6776 142.783C31.6776 142.458 32.1311 142.199 32.455 142.394Z" fill="#0047FF"/>
<path d="M82.4022 59.6172H72.685C68.1503 59.6172 65.0408 55.9195 65.8829 51.3136L67.6321 41.5828C68.4094 37.0418 72.8146 33.2792 77.3493 33.2792H87.0665C91.6012 33.2792 94.7107 36.9769 93.8686 41.5828L92.1195 51.3136C91.3421 55.9195 86.9369 59.6172 82.4022 59.6172Z" fill="url(#paint30_linear_255_221)"/>
<path d="M80.4584 56.5033H71.7129C67.6317 56.5033 64.8461 53.1949 65.6235 49.0431L67.1782 40.2854C67.8908 36.1985 71.8425 32.8251 75.9237 32.8251H84.6692C88.7505 32.8251 91.5361 36.1336 90.7587 40.2854L89.2039 49.0431C88.4913 53.1949 84.6045 56.5033 80.4584 56.5033Z" fill="url(#paint31_linear_255_221)"/>
<g opacity="0.8">
<path opacity="0.8" d="M80.4584 56.5033H71.7129C67.6317 56.5033 64.8461 53.1949 65.6235 49.0431L67.1782 40.2854C67.8908 36.1985 71.8425 32.8251 75.9237 32.8251H84.6692C88.7505 32.8251 91.5361 36.1336 90.7587 40.2854L89.2039 49.0431C88.4913 53.1949 84.6045 56.5033 80.4584 56.5033Z" fill="white"/>
</g>
<path d="M80.7825 48.7187C80.9769 48.7187 81.1064 48.589 81.1712 48.3944C81.3656 46.1238 79.8108 44.3723 77.5434 44.3723C75.2761 44.3723 73.0735 46.1238 72.4905 48.3944C72.4257 48.589 72.5553 48.7187 72.7496 48.7187H80.7825Z" fill="url(#paint32_linear_255_221)"/>
<path d="M80.0053 41.9721C79.8109 43.0749 78.7744 43.9831 77.6731 43.9831C76.5719 43.9831 75.7945 43.0749 75.9888 41.9721C76.1832 40.8692 77.2197 39.961 78.321 39.961C79.4222 39.961 80.1996 40.8692 80.0053 41.9721Z" fill="url(#paint33_linear_255_221)"/>
<mask id="mask0_255_221" style="mask-type:alpha" maskUnits="userSpaceOnUse" x="58" y="74" width="68" height="59">
<path d="M112.538 132.255H60.3889C58.8341 132.255 57.7328 130.957 58.0567 129.401L67.3205 76.8544C67.5796 75.2974 69.1344 74 70.6891 74H122.838C124.393 74 125.494 75.2974 125.17 76.8544L115.907 129.401C115.583 130.957 114.093 132.255 112.538 132.255Z" fill="url(#paint34_linear_255_221)"/>
</mask>
<g mask="url(#mask0_255_221)">
<path d="M121.996 135.239H79.2402L104.699 100.468C105.93 98.8459 108.262 98.8459 108.91 100.468L121.996 135.239Z" fill="#0047FF"/>
<path opacity="0.8" d="M99.2577 135.239H46.979L78.6572 91.9695C79.888 90.3477 82.2201 90.3477 82.868 91.9695L99.2577 135.239Z" fill="#0047FF"/>
</g>
<defs>
<filter id="filter0_d_255_221" x="48.3564" y="69.8669" width="86.0356" height="75.6613" filterUnits="userSpaceOnUse" color-interpolation-filters="sRGB">
<feFlood flood-opacity="0" result="BackgroundImageFix"/>
<feColorMatrix in="SourceAlpha" type="matrix" values="0 0 0 0 0 0 0 0 0 0 0 0 0 0 0 0 0 0 127 0" result="hardAlpha"/>
<feOffset dy="4"/>
<feGaussianBlur stdDeviation="2"/>
<feComposite in2="hardAlpha" operator="out"/>
<feColorMatrix type="matrix" values="0 0 0 0 0 0 0 0 0 0 0 0 0 0 0 0 0 0 0.25 0"/>
<feBlend mode="normal" in2="BackgroundImageFix" result="effect1_dropShadow_255_221"/>
<feBlend mode="normal" in="SourceGraphic" in2="effect1_dropShadow_255_221" result="shape"/>
</filter>
<linearGradient id="paint0_linear_255_221" x1="25.5275" y1="92.881" x2="55.8409" y2="122.538" gradientUnits="userSpaceOnUse">
<stop stop-color="#CCDDEC"/>
<stop offset="1" stop-color="white" stop-opacity="0.5"/>
</linearGradient>
<radialGradient id="paint1_radial_255_221" cx="0" cy="0" r="1" gradientUnits="userSpaceOnUse" gradientTransform="translate(114.95 181.073) scale(1.57919 1.58139)">
<stop stop-color="white"/>
<stop offset="1" stop-color="#05488D"/>
</radialGradient>
<radialGradient id="paint2_radial_255_221" cx="0" cy="0" r="1" gradientUnits="userSpaceOnUse" gradientTransform="translate(159.096 115.769) scale(1.57917 1.58137)">
<stop stop-color="white"/>
<stop offset="1" stop-color="#05488D"/>
</radialGradient>
<radialGradient id="paint3_radial_255_221" cx="0" cy="0" r="1" gradientUnits="userSpaceOnUse" gradientTransform="translate(93.6671 115.481) scale(2.8342 2.83813)">
<stop stop-color="white"/>
<stop offset="1" stop-color="#05488D"/>
</radialGradient>
<radialGradient id="paint4_radial_255_221" cx="0" cy="0" r="1" gradientUnits="userSpaceOnUse" gradientTransform="translate(191.487 115.481) scale(2.83421 2.83813)">
<stop stop-color="white"/>
<stop offset="1" stop-color="#05488D"/>
</radialGradient>
<radialGradient id="paint5_radial_255_221" cx="0" cy="0" r="1" gradientUnits="userSpaceOnUse" gradientTransform="translate(174.239 213.438) scale(2.8342 2.83813)">
<stop stop-color="white"/>
<stop offset="1" stop-color="#05488D"/>
</radialGradient>
<radialGradient id="paint6_radial_255_221" cx="0" cy="0" r="1" gradientUnits="userSpaceOnUse" gradientTransform="translate(76.4188 213.438) scale(2.8342 2.83813)">
<stop stop-color="white"/>
<stop offset="1" stop-color="#05488D"/>
</radialGradient>
<radialGradient id="paint7_radial_255_221" cx="0" cy="0" r="1" gradientUnits="userSpaceOnUse" gradientTransform="translate(109.241 213.725) scale(1.57917 1.58137)">
<stop stop-color="white"/>
<stop offset="1" stop-color="#05488D"/>
</radialGradient>
<radialGradient id="paint8_radial_255_221" cx="0" cy="0" r="1" gradientUnits="userSpaceOnUse" gradientTransform="translate(141.847 213.725) scale(1.57918 1.58137)">
<stop stop-color="white"/>
<stop offset="1" stop-color="#05488D"/>
</radialGradient>
<radialGradient id="paint9_radial_255_221" cx="0" cy="0" r="1" gradientUnits="userSpaceOnUse" gradientTransform="translate(180.203 181.073) scale(1.57916 1.58139)">
<stop stop-color="white"/>
<stop offset="1" stop-color="#05488D"/>
</radialGradient>
<radialGradient id="paint10_radial_255_221" cx="0" cy="0" r="1" gradientUnits="userSpaceOnUse" gradientTransform="translate(185.953 148.421) scale(1.57918 1.58139)">
<stop stop-color="white"/>
<stop offset="1" stop-color="#05488D"/>
</radialGradient>
<radialGradient id="paint11_radial_255_221" cx="0" cy="0" r="1" gradientUnits="userSpaceOnUse" gradientTransform="translate(82.3832 181.073) scale(1.57918 1.58139)">
<stop stop-color="white"/>
<stop offset="1" stop-color="#05488D"/>
</radialGradient>
<radialGradient id="paint12_radial_255_221" cx="0" cy="0" r="1" gradientUnits="userSpaceOnUse" gradientTransform="translate(88.1327 148.421) scale(1.57918 1.58139)">
<stop stop-color="white"/>
<stop offset="1" stop-color="#05488D"/>
</radialGradient>
<radialGradient id="paint13_radial_255_221" cx="0" cy="0" r="1" gradientUnits="userSpaceOnUse" gradientTransform="translate(126.489 115.769) scale(1.57919 1.58137)">
<stop stop-color="white"/>
<stop offset="1" stop-color="#05488D"/>
</radialGradient>
<radialGradient id="paint14_radial_255_221" cx="0" cy="0" r="1" gradientUnits="userSpaceOnUse" gradientTransform="translate(120.672 148.421) scale(1.57917 1.58139)">
<stop stop-color="white"/>
<stop offset="1" stop-color="#05488D"/>
</radialGradient>
<radialGradient id="paint15_radial_255_221" cx="0" cy="0" r="1" gradientUnits="userSpaceOnUse" gradientTransform="translate(153.279 148.421) scale(1.57917 1.58139)">
<stop stop-color="white"/>
<stop offset="1" stop-color="#05488D"/>
</radialGradient>
<radialGradient id="paint16_radial_255_221" cx="0" cy="0" r="1" gradientUnits="userSpaceOnUse" gradientTransform="translate(147.556 181.073) scale(1.57918 1.58139)">
<stop stop-color="white"/>
<stop offset="1" stop-color="#05488D"/>
</radialGradient>
<linearGradient id="paint17_linear_255_221" x1="51.3437" y1="123.105" x2="163.228" y2="123.105" gradientUnits="userSpaceOnUse">
<stop stop-color="#8ABFFE"/>
<stop offset="1" stop-color="#6373FE"/>
</linearGradient>
<linearGradient id="paint18_linear_255_221" x1="51.3437" y1="123.105" x2="163.228" y2="123.105" gradientUnits="userSpaceOnUse">
<stop stop-color="#8ABFFE"/>
<stop offset="1" stop-color="#6373FE"/>
</linearGradient>
<linearGradient id="paint19_linear_255_221" x1="95.0489" y1="28.0527" x2="114.537" y2="202.335" gradientUnits="userSpaceOnUse">
<stop stop-color="#CBE0F2"/>
<stop offset="1" stop-color="#05488D"/>
</linearGradient>
<linearGradient id="paint20_linear_255_221" x1="152.176" y1="83.0386" x2="158.48" y2="83.0386" gradientUnits="userSpaceOnUse">
<stop stop-color="#8A9DFE"/>
<stop offset="1" stop-color="#1B3EBC"/>
</linearGradient>
<linearGradient id="paint21_linear_255_221" x1="135.944" y1="155.171" x2="75.2645" y2="73.5141" gradientUnits="userSpaceOnUse">
<stop stop-color="#D6E6FF"/>
<stop offset="1" stop-color="white" stop-opacity="0.5"/>
</linearGradient>
<linearGradient id="paint22_linear_255_221" x1="97.4321" y1="65.4092" x2="87.0387" y2="130.925" gradientUnits="userSpaceOnUse">
<stop stop-color="#EBEEF5"/>
<stop offset="1" stop-color="#05488D"/>
</linearGradient>
<linearGradient id="paint23_linear_255_221" x1="98.9969" y1="80.7194" x2="103.799" y2="93.2778" gradientUnits="userSpaceOnUse">
<stop stop-color="#284EAD"/>
<stop offset="1" stop-color="#05488D"/>
</linearGradient>
<linearGradient id="paint24_linear_255_221" x1="116.315" y1="166.193" x2="166.151" y2="197.397" gradientUnits="userSpaceOnUse">
<stop stop-color="#F5F2EB"/>
<stop offset="1" stop-color="#05488D"/>
</linearGradient>
<linearGradient id="paint25_linear_255_221" x1="165.588" y1="175.362" x2="169.448" y2="185.456" gradientUnits="userSpaceOnUse">
<stop stop-color="#F5F2EB"/>
<stop offset="0.0001" stop-color="#CED8FA"/>
<stop offset="1" stop-color="#05488D"/>
</linearGradient>
<linearGradient id="paint26_linear_255_221" x1="177.959" y1="118.672" x2="203.087" y2="127.523" gradientUnits="userSpaceOnUse">
<stop stop-color="white"/>
<stop offset="1" stop-color="white" stop-opacity="0.5"/>
</linearGradient>
<linearGradient id="paint27_linear_255_221" x1="177.742" y1="116.905" x2="200.309" y2="124.854" gradientUnits="userSpaceOnUse">
<stop stop-color="white"/>
<stop offset="1" stop-color="white"/>
</linearGradient>
<linearGradient id="paint28_linear_255_221" x1="21.55" y1="148.995" x2="46.6788" y2="157.846" gradientUnits="userSpaceOnUse">
<stop stop-color="white"/>
<stop offset="1" stop-color="white" stop-opacity="0.5"/>
</linearGradient>
<linearGradient id="paint29_linear_255_221" x1="21.3332" y1="147.228" x2="43.9011" y2="155.177" gradientUnits="userSpaceOnUse">
<stop stop-color="white"/>
<stop offset="1" stop-color="white"/>
</linearGradient>
<linearGradient id="paint30_linear_255_221" x1="65.7248" y1="46.486" x2="90.8535" y2="55.3366" gradientUnits="userSpaceOnUse">
<stop stop-color="white"/>
<stop offset="1" stop-color="white" stop-opacity="0.5"/>
</linearGradient>
<linearGradient id="paint31_linear_255_221" x1="65.5075" y1="44.7189" x2="88.0755" y2="52.6676" gradientUnits="userSpaceOnUse">
<stop stop-color="white"/>
<stop offset="1" stop-color="#4274F4"/>
</linearGradient>
<linearGradient id="paint32_linear_255_221" x1="72.4907" y1="46.5648" x2="81.1929" y2="46.5648" gradientUnits="userSpaceOnUse">
<stop stop-color="#05488D"/>
<stop offset="1" stop-color="#05488D"/>
</linearGradient>
<linearGradient id="paint33_linear_255_221" x1="75.9316" y1="41.9582" x2="80.0115" y2="41.9582" gradientUnits="userSpaceOnUse">
<stop stop-color="#05488D"/>
<stop offset="1" stop-color="#05488D"/>
</linearGradient>
<linearGradient id="paint34_linear_255_221" x1="97.6386" y1="64.8066" x2="87.2453" y2="130.323" gradientUnits="userSpaceOnUse">
<stop stop-color="#EBEEF5"/>
<stop offset="1" stop-color="#05488D"/>
</linearGradient>
</defs>
</svg>
