<svg width="252" height="253" viewBox="0 0 252 253" fill="none" xmlns="http://www.w3.org/2000/svg">
<path d="M147.896 50.0162C110.841 48.5241 94.1275 74.2782 90.435 81.8682C81.236 100.616 76.1182 123.192 59.0807 135.193C50.7239 141.096 40.2293 143.691 32.3907 150.243C25.5887 155.887 21.1835 164.32 20.4062 173.143C19.3049 186.247 26.4956 198.832 36.0833 207.784C87.455 255.53 156.318 236.068 177.696 223.548C239.562 187.22 226.606 124.813 211.965 95.621C201.794 75.4459 177.242 51.1839 147.896 50.0162Z" fill="#05488D"/>
<path d="M57.9147 118.975H21.8314C19.6289 118.975 18.2037 117.223 18.5924 115.018L21.7019 97.5023C22.0906 95.2967 24.1636 93.5451 26.3661 93.5451H62.4494C64.652 93.5451 66.0772 95.2967 65.6885 97.5023L62.579 115.018C62.1903 117.223 60.1173 118.975 57.9147 118.975Z" fill="url(#paint0_linear_232_109)"/>
<path d="M24.0988 103.276L22.2849 113.655C22.1553 114.369 22.6088 114.953 23.3862 114.953H57.8499C58.5625 114.953 59.2751 114.369 59.4047 113.655L62.1255 98.2808C62.1255 98.2808 58.8864 96.9185 54.87 100.746C50.8535 104.573 48.3918 108.985 45.2823 108.79C42.1728 108.595 41.1363 103.081 37.3142 103.146C33.1682 103.211 30.5769 107.817 28.8278 106.195C27.9209 105.417 25.9127 102.238 24.0988 103.276Z" fill="#05488D"/>
<path d="M116.801 181.446C116.801 182.29 116.089 183.003 115.246 183.003C114.404 183.003 113.692 182.29 113.692 181.446C113.692 180.603 114.404 179.889 115.246 179.889C116.089 179.889 116.801 180.538 116.801 181.446Z" fill="url(#paint1_radial_232_109)"/>
<path d="M159.363 117.677C160.222 117.677 160.918 116.98 160.918 116.121C160.918 115.261 160.222 114.564 159.363 114.564C158.504 114.564 157.808 115.261 157.808 116.121C157.808 116.98 158.504 117.677 159.363 117.677Z" fill="url(#paint2_radial_232_109)"/>
<path d="M94.1277 118.975C95.702 118.975 96.9781 117.697 96.9781 116.121C96.9781 114.544 95.702 113.266 94.1277 113.266C92.5535 113.266 91.2773 114.544 91.2773 116.121C91.2773 117.697 92.5535 118.975 94.1277 118.975Z" fill="url(#paint3_radial_232_109)"/>
<path d="M191.948 118.975C193.522 118.975 194.798 117.697 194.798 116.121C194.798 114.544 193.522 113.266 191.948 113.266C190.373 113.266 189.097 114.544 189.097 116.121C189.097 117.697 190.373 118.975 191.948 118.975Z" fill="url(#paint4_radial_232_109)"/>
<path d="M174.716 216.931C176.29 216.931 177.566 215.653 177.566 214.077C177.566 212.501 176.29 211.223 174.716 211.223C173.141 211.223 171.865 212.501 171.865 214.077C171.865 215.653 173.141 216.931 174.716 216.931Z" fill="url(#paint5_radial_232_109)"/>
<path d="M76.8958 216.931C78.47 216.931 79.7462 215.653 79.7462 214.077C79.7462 212.501 78.47 211.223 76.8958 211.223C75.3216 211.223 74.0454 212.501 74.0454 214.077C74.0454 215.653 75.3216 216.931 76.8958 216.931Z" fill="url(#paint6_radial_232_109)"/>
<path d="M109.481 215.634C110.339 215.634 111.036 214.937 111.036 214.077C111.036 213.217 110.339 212.52 109.481 212.52C108.622 212.52 107.926 213.217 107.926 214.077C107.926 214.937 108.622 215.634 109.481 215.634Z" fill="url(#paint7_radial_232_109)"/>
<path d="M143.686 214.077C143.686 214.92 142.973 215.634 142.131 215.634C141.289 215.634 140.576 214.92 140.576 214.077C140.576 213.234 141.289 212.52 142.131 212.52C142.973 212.52 143.686 213.234 143.686 214.077Z" fill="url(#paint8_radial_232_109)"/>
<path d="M182.036 181.446C182.036 182.29 181.324 183.003 180.481 183.003C179.639 183.003 178.927 182.29 178.927 181.446C178.927 180.603 179.639 179.889 180.481 179.889C181.324 179.825 182.036 180.538 182.036 181.446Z" fill="url(#paint9_radial_232_109)"/>
<path d="M186.247 150.308C187.106 150.308 187.802 149.611 187.802 148.751C187.802 147.891 187.106 147.194 186.247 147.194C185.388 147.194 184.692 147.891 184.692 148.751C184.692 149.611 185.388 150.308 186.247 150.308Z" fill="url(#paint10_radial_232_109)"/>
<path d="M84.2162 181.446C84.2162 182.29 83.5036 183.003 82.6614 183.003C81.8193 183.003 81.1067 182.29 81.1067 181.446C81.1067 180.603 81.8193 179.889 82.6614 179.889C83.5036 179.889 84.2162 180.538 84.2162 181.446Z" fill="url(#paint11_radial_232_109)"/>
<path d="M88.4268 150.308C89.2855 150.308 89.9816 149.611 89.9816 148.751C89.9816 147.891 89.2855 147.194 88.4268 147.194C87.5682 147.194 86.8721 147.891 86.8721 148.751C86.8721 149.611 87.5682 150.308 88.4268 150.308Z" fill="url(#paint12_radial_232_109)"/>
<path d="M126.777 117.677C127.636 117.677 128.332 116.98 128.332 116.121C128.332 115.261 127.636 114.564 126.777 114.564C125.919 114.564 125.223 115.261 125.223 116.121C125.223 116.98 125.919 117.677 126.777 117.677Z" fill="url(#paint13_radial_232_109)"/>
<path d="M120.947 150.308C121.806 150.308 122.502 149.611 122.502 148.751C122.502 147.891 121.806 147.194 120.947 147.194C120.089 147.194 119.393 147.891 119.393 148.751C119.393 149.611 120.089 150.308 120.947 150.308Z" fill="url(#paint14_radial_232_109)"/>
<path d="M155.152 148.751C155.152 149.594 154.439 150.308 153.597 150.308C152.755 150.308 152.042 149.594 152.042 148.751C152.042 147.908 152.755 147.194 153.597 147.194C154.439 147.194 155.152 147.908 155.152 148.751Z" fill="url(#paint15_radial_232_109)"/>
<path d="M149.386 181.446C149.386 182.29 148.674 183.003 147.832 183.003C146.989 183.003 146.277 182.29 146.277 181.446C146.277 180.603 146.989 179.889 147.832 179.889C148.674 179.889 149.386 180.538 149.386 181.446Z" fill="url(#paint16_radial_232_109)"/>
<path d="M148.868 39.961C148.479 39.8961 148.026 39.8961 147.572 39.8961H90.6941C83.5034 39.8961 76.6365 45.7346 75.3409 52.9354L51.5661 187.869C51.1126 190.269 51.4365 192.539 51.4365 192.539C51.4365 192.539 53.3152 206.422 66.725 206.292H123.668C130.859 206.292 137.725 200.454 139.021 193.253L162.796 58.3197C162.861 57.8008 162.925 57.3467 162.99 56.8277C165.646 40.8044 148.868 39.961 148.868 39.961Z" fill="url(#paint17_linear_232_109)"/>
<path d="M148.868 39.961C148.479 39.8961 148.026 39.8961 147.572 39.8961H90.6941C83.5034 39.8961 76.6365 45.7346 75.3409 52.9354L51.5661 187.869C51.1126 190.269 51.4365 192.539 51.4365 192.539C51.4365 192.539 53.3152 206.422 66.725 206.292H123.668C130.859 206.292 137.725 200.454 139.021 193.253L162.796 58.3197C162.861 57.8008 162.925 57.3467 162.99 56.8277C165.646 40.8044 148.868 39.961 148.868 39.961Z" fill="url(#paint18_linear_232_109)"/>
<g opacity="0.75">
<path opacity="0.75" d="M148.868 39.961C148.479 39.8961 148.026 39.8961 147.572 39.8961H90.6941C83.5034 39.8961 76.6365 45.7346 75.3409 52.9354L51.5661 187.869C51.1126 190.269 51.4365 192.539 51.4365 192.539C51.4365 192.539 53.3152 206.422 66.725 206.292H123.668C130.859 206.292 137.725 200.454 139.021 193.253L162.796 58.3197C162.861 57.8008 162.925 57.3467 162.99 56.8277C165.646 40.8044 148.868 39.961 148.868 39.961Z" fill="#D0DFF2"/>
</g>
<path d="M119.392 199.805H63.1619C56.036 199.805 51.3069 194.032 52.5378 186.896L76.0535 53.5192C77.2843 46.3833 84.0864 40.6097 91.2123 40.6097H147.443C154.569 40.6097 159.298 46.3833 158.067 53.5192L134.551 186.896C133.32 194.032 126.518 199.805 119.392 199.805Z" fill="#F9FAFD"/>
<path d="M155.476 53.7787L132.089 186.506C131.053 192.539 125.287 197.405 119.328 197.405H64.0689C58.0442 197.405 54.0926 192.539 55.1291 186.506L78.5152 53.7787C79.6165 47.6159 85.4468 42.6208 91.601 42.6208H96.0062C97.237 42.6208 98.2088 43.3992 98.4031 44.5669L99.2453 48.9782C99.4396 50.0161 100.347 50.7297 101.448 50.7297H133.644C134.746 50.7297 135.847 50.0161 136.43 48.9782L138.827 44.5669C139.475 43.3992 140.705 42.6208 141.936 42.6208H146.341C152.496 42.6208 156.577 47.6159 155.476 53.7787Z" fill="url(#paint19_linear_232_109)"/>
<path d="M126 47.4862H107.926C107.213 47.4862 106.76 46.9023 106.889 46.2536C107.019 45.54 107.667 45.021 108.379 45.021H126.454C127.166 45.021 127.62 45.6049 127.49 46.2536C127.36 46.9672 126.713 47.4862 126 47.4862Z" fill="#05488D"/>
<path d="M131.895 46.2536C131.766 46.9672 131.118 47.4862 130.405 47.4862C129.693 47.4862 129.239 46.9023 129.369 46.2536C129.498 45.54 130.146 45.021 130.859 45.021C131.571 45.021 132.025 45.6049 131.895 46.2536Z" fill="#05488D"/>
<path d="M157.872 72.0726V71.878H157.16C156.318 71.878 155.54 72.5267 155.411 73.37L152.107 91.9882C151.977 92.7018 151.977 94.0641 153.402 94.1939C153.662 94.1939 153.921 94.1939 154.18 94.1939L154.05 93.4154V93.2208C154.568 92.9613 154.957 92.5072 155.087 91.9233L158.391 73.3051C158.585 72.7862 158.326 72.3321 157.872 72.0726Z" fill="url(#paint20_linear_232_109)"/>
<path d="M154.18 94.1938C152.949 93.9992 152.754 92.7667 152.949 91.9882L156.253 73.37C156.382 72.5267 157.16 71.878 158.002 71.878C158.844 71.878 159.427 73.3051 159.233 74.0836L155.929 92.7018C155.799 93.5451 155.022 94.3236 154.18 94.1938Z" fill="#F9FAFD"/>
<path d="M130.081 148.362H69.5106C67.6967 148.362 66.4659 146.87 66.7898 145.053L77.5435 84.009C77.8674 82.1926 79.6165 80.7005 81.4952 80.7005H142.066C143.88 80.7005 145.111 82.1926 144.787 84.009L134.033 145.053C133.709 146.87 131.96 148.362 130.081 148.362Z" fill="url(#paint21_linear_232_109)"/>
<g filter="url(#filter0_d_232_109)">
<path d="M115.7 137.528H55.129C53.3152 137.528 52.0843 136.036 52.4082 134.22L63.1619 73.1754C63.4858 71.359 65.2349 69.8669 67.1136 69.8669H127.62C129.433 69.8669 130.664 71.359 130.34 73.1754L119.587 134.22C119.263 136.036 117.514 137.528 115.7 137.528Z" fill="white"/>
</g>
<path d="M112.331 132.857H60.1821C58.6273 132.857 57.526 131.56 57.8499 130.003L67.1137 77.4569C67.3728 75.9 68.9276 74.6025 70.4823 74.6025H122.631C124.186 74.6025 125.287 75.9 124.964 77.4569L115.7 130.003C115.376 131.56 113.886 132.857 112.331 132.857Z" fill="url(#paint22_linear_232_109)"/>
<path d="M107.278 88.031C106.63 91.6638 103.197 94.6479 99.5044 94.6479C95.8766 94.6479 93.4149 91.6638 94.0628 88.031C94.7106 84.3982 98.144 81.4141 101.837 81.4141C105.529 81.4141 107.926 84.3982 107.278 88.031Z" fill="url(#paint23_linear_232_109)"/>
<path d="M105.788 163.347L104.622 170.159C104.492 170.937 103.78 171.521 103.002 171.521H74.8225C73.786 171.521 73.0087 170.613 73.203 169.575L74.3043 163.282C74.4338 162.504 75.1464 161.92 75.9238 161.92H104.622C105.335 161.92 105.918 162.634 105.788 163.347Z" fill="white"/>
<path d="M80.5103 166.807C80.7097 166.876 80.851 166.992 80.9343 167.155C81.0187 167.315 81.0282 167.515 80.9628 167.754C80.8727 168.084 80.6712 168.34 80.3584 168.522C80.0466 168.699 79.6387 168.788 79.1347 168.788H77.1712L78.2108 164.978H80.0615C80.5279 164.978 80.8628 165.067 81.0663 165.245C81.2708 165.419 81.331 165.66 81.2468 165.969C81.1953 166.158 81.1047 166.324 80.9748 166.47C80.8449 166.615 80.6901 166.727 80.5103 166.807ZM78.7928 165.533L78.5062 166.584H79.5443C79.8001 166.584 80.0076 166.54 80.1668 166.453C80.3307 166.363 80.4359 166.232 80.4825 166.061C80.53 165.887 80.496 165.757 80.3806 165.669C80.27 165.579 80.0868 165.533 79.831 165.533H78.7928ZM79.241 168.233C79.809 168.233 80.143 168.05 80.243 167.683C80.343 167.317 80.109 167.134 79.541 167.134H78.3562L78.0562 168.233H79.241ZM83.1469 168.843C82.6015 168.843 82.2165 168.696 81.992 168.402C81.7685 168.104 81.7321 167.68 81.8826 167.128L82.4692 164.978H83.2027L82.6235 167.101C82.4195 167.849 82.6523 168.222 83.3218 168.222C83.9876 168.222 84.4225 167.849 84.6264 167.101L85.2057 164.978H85.9279L85.3412 167.128C85.1907 167.68 84.9225 168.104 84.5367 168.402C84.1555 168.696 83.6923 168.843 83.1469 168.843ZM87.5213 165.577H86.2123L86.3757 164.978H89.7271L89.5638 165.577H88.2548L87.3785 168.788H86.645L87.5213 165.577ZM90.9705 165.577H89.6615L89.8249 164.978H93.1764L93.013 165.577H91.704L90.8277 168.788H90.0942L90.9705 165.577ZM94.4622 168.843C94.0597 168.843 93.7195 168.759 93.4416 168.592C93.1646 168.422 92.9746 168.188 92.8715 167.89C92.7694 167.589 92.7688 167.253 92.8698 166.883C92.9708 166.513 93.154 166.179 93.4195 165.882C93.686 165.581 94.0038 165.346 94.3728 165.18C94.7428 165.009 95.1291 164.924 95.5316 164.924C95.934 164.924 96.2737 165.009 96.5507 165.18C96.8286 165.346 97.0192 165.579 97.1223 165.876C97.2254 166.174 97.226 166.51 97.124 166.883C97.022 167.257 96.8383 167.593 96.5728 167.89C96.3073 168.188 95.9895 168.422 95.6195 168.592C95.2504 168.759 94.8647 168.843 94.4622 168.843ZM94.6315 168.222C94.8948 168.222 95.1471 168.166 95.3885 168.054C95.6308 167.937 95.8399 167.778 96.0157 167.575C96.1925 167.368 96.3156 167.137 96.3849 166.883C96.4542 166.629 96.4564 166.401 96.3914 166.197C96.3275 165.991 96.2056 165.831 96.0256 165.718C95.8467 165.602 95.6255 165.544 95.3622 165.544C95.0989 165.544 94.8461 165.602 94.6038 165.718C94.3625 165.831 94.1534 165.991 93.9766 166.197C93.8008 166.401 93.6782 166.629 93.6089 166.883C93.5396 167.137 93.5369 167.368 93.6008 167.575C93.6658 167.778 93.7877 167.937 93.9667 168.054C94.1466 168.166 94.3682 168.222 94.6315 168.222ZM101.931 164.978L100.891 168.788H100.287L98.8135 166.208L98.1095 168.788H97.3816L98.4213 164.978H99.025L100.499 167.558L101.203 164.978H101.931Z" fill="#05488D"/>
<path d="M126.129 156.665C126 157.314 125.482 157.768 124.834 157.768H72.1017C71.2596 157.768 70.6765 156.99 70.8061 156.211C70.9357 155.563 71.4539 155.108 72.1017 155.108H124.834C125.611 155.108 126.259 155.822 126.129 156.665Z" fill="white"/>
<path d="M102.549 156.536C102.484 156.86 102.16 157.119 101.836 157.119H72.2313C71.7778 157.119 71.3891 156.73 71.5187 156.276C71.5835 155.952 71.9074 155.692 72.2313 155.692H101.836C102.29 155.692 102.614 156.082 102.549 156.536Z" fill="#5096FF"/>
<path d="M175.04 178.138C174.651 177.359 173.679 175.997 171.736 175.154C170.246 174.44 168.626 174.505 168.626 174.505H114.922C111.23 174.505 107.667 177.489 107.019 181.187C106.76 182.809 107.019 184.301 107.796 185.468L108.833 186.96C109.805 188.323 111.424 189.166 113.432 189.166H166.942C171.282 189.166 174.457 186.182 175.364 182.874C176.076 180.344 175.299 178.657 175.04 178.138Z" fill="url(#paint24_linear_232_109)"/>
<path d="M166.1 187.804H112.785C109.157 187.804 106.76 184.885 107.408 181.252C108.055 177.619 111.489 174.7 115.117 174.7H168.432C172.06 174.7 174.457 177.619 173.809 181.252C173.161 184.82 169.727 187.804 166.1 187.804Z" fill="#DBEBFF"/>
<path d="M172.254 181.252C171.736 184.171 168.95 186.571 166.035 186.571C163.12 186.571 161.176 184.171 161.694 181.252C162.213 178.333 164.998 175.932 167.914 175.932C170.829 175.932 172.772 178.268 172.254 181.252Z" fill="url(#paint25_linear_232_109)"/>
<path d="M113.622 184.457C113.271 184.457 112.94 184.405 112.63 184.3C112.325 184.19 112.094 184.05 111.937 183.879L112.274 183.367C112.424 183.525 112.628 183.654 112.886 183.755C113.149 183.851 113.427 183.899 113.72 183.899C114.107 183.899 114.407 183.836 114.62 183.709C114.834 183.577 114.96 183.405 114.998 183.19C115.026 183.033 114.995 182.906 114.905 182.809C114.821 182.709 114.705 182.632 114.559 182.58C114.417 182.527 114.212 182.468 113.944 182.402C113.607 182.319 113.337 182.236 113.134 182.153C112.936 182.07 112.774 181.943 112.648 181.772C112.528 181.597 112.493 181.363 112.545 181.07C112.588 180.824 112.692 180.603 112.855 180.406C113.023 180.21 113.251 180.052 113.538 179.934C113.826 179.816 114.167 179.757 114.563 179.757C114.838 179.757 115.103 179.792 115.358 179.862C115.612 179.932 115.823 180.032 115.991 180.164L115.679 180.689C115.505 180.566 115.312 180.474 115.1 180.413C114.89 180.347 114.678 180.315 114.465 180.315C114.087 180.315 113.79 180.382 113.575 180.518C113.365 180.654 113.241 180.829 113.203 181.043C113.175 181.201 113.206 181.33 113.295 181.431C113.384 181.527 113.502 181.604 113.648 181.66C113.798 181.713 114.004 181.77 114.264 181.831C114.601 181.914 114.868 181.997 115.067 182.081C115.266 182.164 115.425 182.291 115.546 182.461C115.672 182.632 115.709 182.862 115.658 183.151C115.616 183.391 115.51 183.612 115.342 183.814C115.174 184.011 114.944 184.168 114.652 184.286C114.361 184.4 114.017 184.457 113.622 184.457ZM119.814 182.685C119.806 182.733 119.79 182.796 119.767 182.875H116.901C116.887 183.181 116.979 183.429 117.177 183.617C117.38 183.801 117.655 183.893 118.002 183.893C118.424 183.893 118.788 183.753 119.095 183.472L119.377 183.879C119.185 184.063 118.96 184.203 118.703 184.3C118.451 184.396 118.178 184.444 117.885 184.444C117.511 184.444 117.193 184.37 116.931 184.221C116.669 184.068 116.482 183.855 116.369 183.584C116.262 183.313 116.238 183.006 116.298 182.665C116.357 182.328 116.486 182.024 116.685 181.752C116.888 181.481 117.137 181.271 117.429 181.122C117.727 180.969 118.045 180.892 118.383 180.892C118.721 180.892 119.007 180.969 119.243 181.122C119.483 181.271 119.653 181.481 119.752 181.752C119.855 182.024 119.876 182.334 119.814 182.685ZM118.289 181.424C117.983 181.424 117.709 181.516 117.468 181.7C117.231 181.884 117.069 182.124 116.981 182.422H119.247C119.263 182.129 119.183 181.89 119.006 181.706C118.835 181.518 118.596 181.424 118.289 181.424ZM122.207 180.892C122.696 180.892 123.048 181.01 123.265 181.247C123.485 181.483 123.554 181.836 123.472 182.304L123.102 184.405H122.495L122.576 183.945C122.441 184.107 122.266 184.232 122.05 184.319C121.84 184.402 121.6 184.444 121.329 184.444C120.933 184.444 120.632 184.35 120.425 184.162C120.223 183.974 120.148 183.726 120.202 183.42C120.256 183.114 120.413 182.868 120.672 182.685C120.932 182.496 121.308 182.402 121.801 182.402H122.815L122.837 182.278C122.884 182.006 122.841 181.798 122.706 181.654C122.572 181.509 122.349 181.437 122.038 181.437C121.829 181.437 121.618 181.472 121.406 181.542C121.195 181.608 121.01 181.698 120.852 181.811L120.669 181.339C120.876 181.194 121.113 181.085 121.38 181.01C121.647 180.932 121.923 180.892 122.207 180.892ZM121.521 183.958C121.765 183.958 121.986 183.906 122.182 183.801C122.379 183.691 122.535 183.538 122.649 183.341L122.735 182.855H121.748C121.206 182.855 120.903 183.035 120.84 183.394C120.809 183.569 120.854 183.707 120.974 183.807C121.094 183.908 121.276 183.958 121.521 183.958ZM125.409 181.509C125.556 181.308 125.747 181.155 125.983 181.05C126.22 180.945 126.493 180.892 126.804 180.892L126.697 181.503C126.662 181.498 126.614 181.496 126.551 181.496C126.205 181.496 125.913 181.599 125.677 181.805C125.446 182.006 125.298 182.295 125.231 182.671L124.926 184.405H124.286L124.899 180.925H125.512L125.409 181.509ZM128.475 184.444C128.115 184.444 127.807 184.367 127.549 184.214C127.296 184.061 127.113 183.851 127 183.584C126.888 183.313 126.862 183.006 126.922 182.665C126.982 182.324 127.116 182.019 127.323 181.752C127.53 181.481 127.787 181.271 128.093 181.122C128.405 180.969 128.741 180.892 129.101 180.892C129.42 180.892 129.694 180.956 129.92 181.083C130.151 181.21 130.314 181.393 130.41 181.634L129.869 181.943C129.787 181.776 129.671 181.652 129.521 181.569C129.372 181.485 129.197 181.444 128.997 181.444C128.766 181.444 128.548 181.494 128.344 181.595C128.144 181.695 127.974 181.84 127.834 182.028C127.699 182.212 127.611 182.424 127.569 182.665C127.525 182.91 127.538 183.127 127.607 183.315C127.682 183.499 127.801 183.641 127.966 183.742C128.135 183.842 128.335 183.893 128.566 183.893C128.766 183.893 128.955 183.851 129.134 183.768C129.313 183.685 129.473 183.56 129.613 183.394L130.047 183.696C129.867 183.936 129.638 184.122 129.362 184.254C129.091 184.381 128.795 184.444 128.475 184.444ZM133.21 180.892C133.659 180.892 133.991 181.021 134.208 181.28C134.43 181.534 134.498 181.908 134.411 182.402L134.058 184.405H133.418L133.758 182.475C133.817 182.137 133.78 181.884 133.645 181.713C133.511 181.542 133.29 181.457 132.984 181.457C132.637 181.457 132.346 181.558 132.111 181.759C131.876 181.956 131.726 182.24 131.66 182.612L131.345 184.405H130.705L131.563 179.533H132.203L131.871 181.418C132.033 181.251 132.229 181.122 132.459 181.03C132.693 180.938 132.943 180.892 133.21 180.892ZM135.389 184.444C135.264 184.444 135.165 184.402 135.091 184.319C135.017 184.232 134.992 184.122 135.015 183.991C135.038 183.864 135.101 183.759 135.204 183.676C135.308 183.588 135.423 183.545 135.547 183.545C135.672 183.545 135.769 183.586 135.838 183.669C135.908 183.753 135.932 183.86 135.909 183.991C135.885 184.122 135.822 184.232 135.717 184.319C135.618 184.402 135.509 184.444 135.389 184.444ZM136.899 184.444C136.775 184.444 136.675 184.402 136.601 184.319C136.528 184.232 136.502 184.122 136.526 183.991C136.548 183.864 136.611 183.759 136.714 183.676C136.819 183.588 136.933 183.545 137.057 183.545C137.182 183.545 137.279 183.586 137.349 183.669C137.419 183.753 137.442 183.86 137.419 183.991C137.396 184.122 137.332 184.232 137.228 184.319C137.129 184.402 137.019 184.444 136.899 184.444ZM138.409 184.444C138.285 184.444 138.186 184.402 138.111 184.319C138.038 184.232 138.013 184.122 138.036 183.991C138.058 183.864 138.121 183.759 138.225 183.676C138.329 183.588 138.443 183.545 138.568 183.545C138.692 183.545 138.789 183.586 138.859 183.669C138.929 183.753 138.952 183.86 138.929 183.991C138.906 184.122 138.842 184.232 138.738 184.319C138.639 184.402 138.529 184.444 138.409 184.444Z" fill="#05488D"/>
<path d="M168.885 178.657C167.978 177.554 166.164 177.554 164.869 178.657C163.573 179.76 163.249 181.576 164.156 182.679C164.998 183.652 166.553 183.782 167.784 183.003L168.756 184.171C168.885 184.366 169.209 184.366 169.403 184.171C169.598 183.976 169.663 183.717 169.533 183.522L168.561 182.355C169.533 181.252 169.727 179.695 168.885 178.657ZM167.654 182.095C166.747 182.874 165.517 182.874 164.933 182.095C164.286 181.317 164.545 180.084 165.387 179.371C166.294 178.592 167.525 178.592 168.108 179.371C168.756 180.084 168.561 181.317 167.654 182.095Z" fill="white"/>
<path d="M194.604 131.819H184.887C180.352 131.819 177.242 128.122 178.085 123.516L179.834 113.785C180.611 109.244 185.016 105.482 189.551 105.482H199.268C203.803 105.482 206.912 109.179 206.07 113.785L204.321 123.516C203.544 128.122 199.203 131.819 194.604 131.819Z" fill="url(#paint26_linear_232_109)"/>
<path d="M192.725 128.706H183.98C179.898 128.706 177.113 125.397 177.89 121.245L179.445 112.488C180.157 108.401 184.109 105.027 188.19 105.027H196.936C201.017 105.027 203.803 108.336 203.025 112.488L201.471 121.31C200.758 125.397 196.806 128.706 192.725 128.706Z" fill="url(#paint27_linear_232_109)"/>
<g opacity="0.8">
<path opacity="0.8" d="M192.725 128.706H183.98C179.898 128.706 177.113 125.397 177.89 121.245L179.445 112.488C180.157 108.401 184.109 105.027 188.19 105.027H196.936C201.017 105.027 203.803 108.336 203.025 112.488L201.471 121.31C200.758 125.397 196.806 128.706 192.725 128.706Z" fill="#C6E0FF"/>
</g>
<path d="M197.001 116.704L191.883 110.347C191.753 110.152 191.494 110.152 191.3 110.347L183.915 116.704C183.785 116.834 183.85 117.029 183.98 117.029H185.081C185.34 117.029 185.47 117.223 185.405 117.483L184.498 122.608C184.498 122.802 184.563 122.932 184.757 122.932H187.413C187.607 122.932 187.737 122.802 187.802 122.608L188.385 119.429C188.385 119.299 188.514 119.169 188.644 119.169H191.43C191.559 119.169 191.624 119.299 191.624 119.429L191.041 122.608C191.041 122.802 191.106 122.932 191.3 122.932H193.956C194.15 122.932 194.28 122.802 194.345 122.608L195.252 117.483C195.316 117.223 195.511 117.029 195.77 117.029H196.871C197.001 117.029 197.13 116.834 197.001 116.704Z" fill="#05488D"/>
<path d="M38.2213 162.179H28.5041C23.9694 162.179 20.8599 158.482 21.702 153.876L23.4511 144.145C24.2285 139.604 28.6337 135.842 33.1684 135.842H42.8856C47.4203 135.842 50.5298 139.539 49.6876 144.145L47.9385 153.876C47.1612 158.417 42.8208 162.179 38.2213 162.179Z" fill="url(#paint28_linear_232_109)"/>
<path d="M36.3426 159.066H27.5323C23.451 159.066 20.6654 155.757 21.4428 151.605L22.9976 142.848C23.7102 138.761 27.6618 135.387 31.7431 135.387H40.4886C44.5698 135.387 47.3554 138.696 46.578 142.848L45.0233 151.605C44.3107 155.692 40.4238 159.066 36.3426 159.066Z" fill="url(#paint29_linear_232_109)"/>
<g opacity="0.8">
<path opacity="0.8" d="M36.3426 159.066H27.5323C23.451 159.066 20.6654 155.757 21.4428 151.605L22.9976 142.848C23.7102 138.761 27.6618 135.387 31.7431 135.387H40.4886C44.5698 135.387 47.3554 138.696 46.578 142.848L45.0233 151.605C44.3107 155.692 40.4238 159.066 36.3426 159.066Z" fill="#C6E0FF"/>
</g>
<path d="M32.4557 142.394L39.2578 146.74C39.5817 146.935 39.4521 147.454 39.1282 147.648L30.8362 151.995C30.4475 152.189 30.0588 151.93 30.1236 151.541L31.6783 142.783C31.6783 142.458 32.1318 142.199 32.4557 142.394Z" fill="#05488D"/>
<path d="M82.4022 59.6172H72.685C68.1503 59.6172 65.0408 55.9195 65.8829 51.3136L67.6321 41.5828C68.4094 37.0418 72.8146 33.2792 77.3493 33.2792H87.0665C91.6012 33.2792 94.7107 36.9769 93.8686 41.5828L92.1195 51.3136C91.3421 55.9195 86.9369 59.6172 82.4022 59.6172Z" fill="url(#paint30_linear_232_109)"/>
<path d="M80.4587 56.5033H71.7132C67.6319 56.5033 64.8463 53.1949 65.6237 49.0431L67.1785 40.2854C67.8911 36.1985 71.8427 32.8251 75.924 32.8251H84.6695C88.7507 32.8251 91.5363 36.1336 90.7589 40.2854L89.2042 49.0431C88.4916 53.1949 84.6047 56.5033 80.4587 56.5033Z" fill="url(#paint31_linear_232_109)"/>
<g opacity="0.8">
<path opacity="0.8" d="M80.4587 56.5033H71.7132C67.6319 56.5033 64.8463 53.1949 65.6237 49.0431L67.1785 40.2854C67.8911 36.1985 71.8427 32.8251 75.924 32.8251H84.6695C88.7507 32.8251 91.5363 36.1336 90.7589 40.2854L89.2042 49.0431C88.4916 53.1949 84.6047 56.5033 80.4587 56.5033Z" fill="white"/>
</g>
<path d="M80.7825 48.7187C80.9769 48.7187 81.1064 48.589 81.1712 48.3944C81.3656 46.1238 79.8108 44.3723 77.5434 44.3723C75.2761 44.3723 73.0735 46.1238 72.4905 48.3944C72.4257 48.589 72.5553 48.7187 72.7496 48.7187H80.7825Z" fill="url(#paint32_linear_232_109)"/>
<path d="M80.005 41.9721C79.8107 43.0749 78.7742 43.9831 77.6729 43.9831C76.5716 43.9831 75.7942 43.0749 75.9886 41.9721C76.1829 40.8692 77.2194 39.961 78.3207 39.961C79.422 39.961 80.1994 40.8692 80.005 41.9721Z" fill="url(#paint33_linear_232_109)"/>
<mask id="mask0_232_109" style="mask-type:alpha" maskUnits="userSpaceOnUse" x="58" y="74" width="68" height="59">
<path d="M112.538 132.255H60.3889C58.8341 132.255 57.7328 130.957 58.0567 129.401L67.3205 76.8544C67.5796 75.2974 69.1344 74 70.6891 74H122.838C124.393 74 125.494 75.2974 125.17 76.8544L115.907 129.401C115.583 130.957 114.093 132.255 112.538 132.255Z" fill="url(#paint34_linear_232_109)"/>
</mask>
<g mask="url(#mask0_232_109)">
<path d="M121.996 135.239H79.2402L104.699 100.468C105.93 98.8459 108.262 98.8459 108.91 100.468L121.996 135.239Z" fill="#05488D"/>
<path opacity="0.8" d="M99.2577 135.239H46.979L78.6572 91.9695C79.888 90.3477 82.2201 90.3477 82.868 91.9695L99.2577 135.239Z" fill="#05488D"/>
</g>
<defs>
<filter id="filter0_d_232_109" x="48.3564" y="69.8669" width="86.0356" height="75.6613" filterUnits="userSpaceOnUse" color-interpolation-filters="sRGB">
<feFlood flood-opacity="0" result="BackgroundImageFix"/>
<feColorMatrix in="SourceAlpha" type="matrix" values="0 0 0 0 0 0 0 0 0 0 0 0 0 0 0 0 0 0 127 0" result="hardAlpha"/>
<feOffset dy="4"/>
<feGaussianBlur stdDeviation="2"/>
<feComposite in2="hardAlpha" operator="out"/>
<feColorMatrix type="matrix" values="0 0 0 0 0 0 0 0 0 0 0 0 0 0 0 0 0 0 0.25 0"/>
<feBlend mode="normal" in2="BackgroundImageFix" result="effect1_dropShadow_232_109"/>
<feBlend mode="normal" in="SourceGraphic" in2="effect1_dropShadow_232_109" result="shape"/>
</filter>
<linearGradient id="paint0_linear_232_109" x1="25.5278" y1="92.881" x2="55.8411" y2="122.538" gradientUnits="userSpaceOnUse">
<stop stop-color="#CCDDEC"/>
<stop offset="1" stop-color="white" stop-opacity="0.5"/>
</linearGradient>
<radialGradient id="paint1_radial_232_109" cx="0" cy="0" r="1" gradientUnits="userSpaceOnUse" gradientTransform="translate(114.95 181.073) scale(1.57919 1.58139)">
<stop stop-color="white"/>
<stop offset="1" stop-color="#05488D"/>
</radialGradient>
<radialGradient id="paint2_radial_232_109" cx="0" cy="0" r="1" gradientUnits="userSpaceOnUse" gradientTransform="translate(159.096 115.769) scale(1.57917 1.58137)">
<stop stop-color="white"/>
<stop offset="1" stop-color="#05488D"/>
</radialGradient>
<radialGradient id="paint3_radial_232_109" cx="0" cy="0" r="1" gradientUnits="userSpaceOnUse" gradientTransform="translate(93.6676 115.481) scale(2.8342 2.83813)">
<stop stop-color="white"/>
<stop offset="1" stop-color="#05488D"/>
</radialGradient>
<radialGradient id="paint4_radial_232_109" cx="0" cy="0" r="1" gradientUnits="userSpaceOnUse" gradientTransform="translate(191.487 115.481) scale(2.83421 2.83813)">
<stop stop-color="white"/>
<stop offset="1" stop-color="#05488D"/>
</radialGradient>
<radialGradient id="paint5_radial_232_109" cx="0" cy="0" r="1" gradientUnits="userSpaceOnUse" gradientTransform="translate(174.239 213.438) scale(2.8342 2.83813)">
<stop stop-color="white"/>
<stop offset="1" stop-color="#05488D"/>
</radialGradient>
<radialGradient id="paint6_radial_232_109" cx="0" cy="0" r="1" gradientUnits="userSpaceOnUse" gradientTransform="translate(76.4193 213.438) scale(2.8342 2.83813)">
<stop stop-color="white"/>
<stop offset="1" stop-color="#05488D"/>
</radialGradient>
<radialGradient id="paint7_radial_232_109" cx="0" cy="0" r="1" gradientUnits="userSpaceOnUse" gradientTransform="translate(109.241 213.725) scale(1.57917 1.58137)">
<stop stop-color="white"/>
<stop offset="1" stop-color="#05488D"/>
</radialGradient>
<radialGradient id="paint8_radial_232_109" cx="0" cy="0" r="1" gradientUnits="userSpaceOnUse" gradientTransform="translate(141.848 213.725) scale(1.57918 1.58137)">
<stop stop-color="white"/>
<stop offset="1" stop-color="#05488D"/>
</radialGradient>
<radialGradient id="paint9_radial_232_109" cx="0" cy="0" r="1" gradientUnits="userSpaceOnUse" gradientTransform="translate(180.204 181.073) scale(1.57916 1.58139)">
<stop stop-color="white"/>
<stop offset="1" stop-color="#05488D"/>
</radialGradient>
<radialGradient id="paint10_radial_232_109" cx="0" cy="0" r="1" gradientUnits="userSpaceOnUse" gradientTransform="translate(185.954 148.421) scale(1.57918 1.58139)">
<stop stop-color="white"/>
<stop offset="1" stop-color="#05488D"/>
</radialGradient>
<radialGradient id="paint11_radial_232_109" cx="0" cy="0" r="1" gradientUnits="userSpaceOnUse" gradientTransform="translate(82.3839 181.073) scale(1.57918 1.58139)">
<stop stop-color="white"/>
<stop offset="1" stop-color="#05488D"/>
</radialGradient>
<radialGradient id="paint12_radial_232_109" cx="0" cy="0" r="1" gradientUnits="userSpaceOnUse" gradientTransform="translate(88.1332 148.421) scale(1.57918 1.58139)">
<stop stop-color="white"/>
<stop offset="1" stop-color="#05488D"/>
</radialGradient>
<radialGradient id="paint13_radial_232_109" cx="0" cy="0" r="1" gradientUnits="userSpaceOnUse" gradientTransform="translate(126.489 115.769) scale(1.57919 1.58137)">
<stop stop-color="white"/>
<stop offset="1" stop-color="#05488D"/>
</radialGradient>
<radialGradient id="paint14_radial_232_109" cx="0" cy="0" r="1" gradientUnits="userSpaceOnUse" gradientTransform="translate(120.673 148.421) scale(1.57917 1.58139)">
<stop stop-color="white"/>
<stop offset="1" stop-color="#05488D"/>
</radialGradient>
<radialGradient id="paint15_radial_232_109" cx="0" cy="0" r="1" gradientUnits="userSpaceOnUse" gradientTransform="translate(153.279 148.421) scale(1.57917 1.58139)">
<stop stop-color="white"/>
<stop offset="1" stop-color="#05488D"/>
</radialGradient>
<radialGradient id="paint16_radial_232_109" cx="0" cy="0" r="1" gradientUnits="userSpaceOnUse" gradientTransform="translate(147.557 181.073) scale(1.57918 1.58139)">
<stop stop-color="white"/>
<stop offset="1" stop-color="#05488D"/>
</radialGradient>
<linearGradient id="paint17_linear_232_109" x1="51.344" y1="123.105" x2="163.228" y2="123.105" gradientUnits="userSpaceOnUse">
<stop stop-color="#8ABFFE"/>
<stop offset="1" stop-color="#6373FE"/>
</linearGradient>
<linearGradient id="paint18_linear_232_109" x1="51.344" y1="123.105" x2="163.228" y2="123.105" gradientUnits="userSpaceOnUse">
<stop stop-color="#8ABFFE"/>
<stop offset="1" stop-color="#6373FE"/>
</linearGradient>
<linearGradient id="paint19_linear_232_109" x1="95.0492" y1="28.0527" x2="114.537" y2="202.335" gradientUnits="userSpaceOnUse">
<stop stop-color="#CBE0F2"/>
<stop offset="1" stop-color="#05488D"/>
</linearGradient>
<linearGradient id="paint20_linear_232_109" x1="152.176" y1="83.0386" x2="158.48" y2="83.0386" gradientUnits="userSpaceOnUse">
<stop stop-color="#8A9DFE"/>
<stop offset="1" stop-color="#1B3EBC"/>
</linearGradient>
<linearGradient id="paint21_linear_232_109" x1="135.944" y1="155.171" x2="75.2643" y2="73.5141" gradientUnits="userSpaceOnUse">
<stop stop-color="#D6E6FF"/>
<stop offset="1" stop-color="white" stop-opacity="0.5"/>
</linearGradient>
<linearGradient id="paint22_linear_232_109" x1="97.4318" y1="65.4092" x2="87.0385" y2="130.925" gradientUnits="userSpaceOnUse">
<stop stop-color="#EBEEF5"/>
<stop offset="1" stop-color="#05488D"/>
</linearGradient>
<linearGradient id="paint23_linear_232_109" x1="98.9972" y1="80.7194" x2="103.799" y2="93.2778" gradientUnits="userSpaceOnUse">
<stop stop-color="#284EAD"/>
<stop offset="1" stop-color="#05488D"/>
</linearGradient>
<linearGradient id="paint24_linear_232_109" x1="116.316" y1="166.193" x2="166.152" y2="197.397" gradientUnits="userSpaceOnUse">
<stop stop-color="#F5F2EB"/>
<stop offset="1" stop-color="#05488D"/>
</linearGradient>
<linearGradient id="paint25_linear_232_109" x1="165.589" y1="175.362" x2="169.449" y2="185.456" gradientUnits="userSpaceOnUse">
<stop stop-color="#F5F2EB"/>
<stop offset="0.0001" stop-color="#CED8FA"/>
<stop offset="1" stop-color="#05488D"/>
</linearGradient>
<linearGradient id="paint26_linear_232_109" x1="177.959" y1="118.672" x2="203.088" y2="127.523" gradientUnits="userSpaceOnUse">
<stop stop-color="white"/>
<stop offset="1" stop-color="white" stop-opacity="0.5"/>
</linearGradient>
<linearGradient id="paint27_linear_232_109" x1="177.742" y1="116.905" x2="200.31" y2="124.854" gradientUnits="userSpaceOnUse">
<stop stop-color="white"/>
<stop offset="1" stop-color="white"/>
</linearGradient>
<linearGradient id="paint28_linear_232_109" x1="21.5507" y1="148.995" x2="46.6795" y2="157.846" gradientUnits="userSpaceOnUse">
<stop stop-color="white"/>
<stop offset="1" stop-color="white" stop-opacity="0.5"/>
</linearGradient>
<linearGradient id="paint29_linear_232_109" x1="21.3337" y1="147.228" x2="43.9016" y2="155.177" gradientUnits="userSpaceOnUse">
<stop stop-color="white"/>
<stop offset="1" stop-color="white"/>
</linearGradient>
<linearGradient id="paint30_linear_232_109" x1="65.7248" y1="46.486" x2="90.8535" y2="55.3366" gradientUnits="userSpaceOnUse">
<stop stop-color="white"/>
<stop offset="1" stop-color="white" stop-opacity="0.5"/>
</linearGradient>
<linearGradient id="paint31_linear_232_109" x1="65.5077" y1="44.7189" x2="88.0758" y2="52.6676" gradientUnits="userSpaceOnUse">
<stop stop-color="white"/>
<stop offset="1" stop-color="#4274F4"/>
</linearGradient>
<linearGradient id="paint32_linear_232_109" x1="72.4907" y1="46.5648" x2="81.1929" y2="46.5648" gradientUnits="userSpaceOnUse">
<stop stop-color="#05488D"/>
<stop offset="1" stop-color="#05488D"/>
</linearGradient>
<linearGradient id="paint33_linear_232_109" x1="75.9313" y1="41.9582" x2="80.0113" y2="41.9582" gradientUnits="userSpaceOnUse">
<stop stop-color="#05488D"/>
<stop offset="1" stop-color="#05488D"/>
</linearGradient>
<linearGradient id="paint34_linear_232_109" x1="97.6386" y1="64.8066" x2="87.2453" y2="130.323" gradientUnits="userSpaceOnUse">
<stop stop-color="#EBEEF5"/>
<stop offset="1" stop-color="#05488D"/>
</linearGradient>
</defs>
</svg>
