<svg width="16" height="16" viewBox="0 0 16 16" fill="none" xmlns="http://www.w3.org/2000/svg">
<path d="M2.21875 14.375L0.9375 0H15.0312L13.75 14.375L7.96875 16" fill="#E34F26"/>
<path d="M8 14.75L12.6562 13.4688L13.75 1.15625H8" fill="#EF652A"/>
<path d="M8 6.5H5.65625L5.5 4.6875H8V2.9375H3.5625L4.03125 8.28125H8V6.5ZM7.96875 11.0938L6 10.5625L5.875 9.15625H4.125L4.34375 11.9375L7.96875 12.9375V11.0938Z" fill="#EBEBEB"/>
<path d="M7.96875 6.5V8.28125H10.1562L9.9375 10.5625L7.96875 11.0938V12.9375L11.5938 11.9375L12.0938 6.5H7.96875ZM7.96875 2.9375V4.6875H12.25L12.4062 2.9375H7.96875Z" fill="white"/>
</svg>
