<svg width="16" height="16" viewBox="0 0 16 16" fill="none" xmlns="http://www.w3.org/2000/svg">
<path d="M14.5496 0H1.45044C0.649375 0 0 0.649375 0 1.45044V14.5496C0 15.3506 0.649375 16 1.45044 16H14.5496C15.3506 16 16 15.3506 16 14.5496V1.45044C16 0.649375 15.3506 0 14.5496 0Z" fill="#DC395F"/>
<path d="M5.34728 5.03398C5.87915 5.03398 6.32472 4.6171 6.32472 4.07072C6.32472 3.52472 5.87915 3.10791 5.34728 3.10791C4.8154 3.10791 4.36996 3.52472 4.36996 4.07072C4.36996 4.61704 4.8154 5.03398 5.34728 5.03398ZM3.32065 10.1915C3.26321 10.4359 3.2344 10.6997 3.2344 10.915C3.2344 11.7632 3.69434 12.3262 4.67178 12.3262C5.4824 12.3262 6.13959 11.8449 6.61278 11.0675L6.32384 12.2271H7.93353L8.85353 8.53717C9.08353 7.60292 9.52909 7.11798 10.2047 7.11798C10.7365 7.11798 11.0671 7.44873 11.0671 7.99473C11.0671 8.15292 11.0527 8.32523 10.9952 8.51217L10.5208 10.2082C10.449 10.4526 10.4203 10.6971 10.4203 10.9269C10.4203 11.7321 10.8945 12.321 11.8863 12.321C12.7344 12.321 13.4099 11.7751 13.7837 10.467L13.1513 10.2229C12.835 11.0992 12.5619 11.2577 12.3463 11.2577C12.1307 11.2577 12.0157 11.114 12.0157 10.8267C12.0157 10.6974 12.0445 10.5538 12.0875 10.3809L12.5476 8.72854C12.6625 8.34054 12.7057 7.99648 12.7057 7.68035C12.7057 6.44423 11.9582 5.7991 11.0527 5.7991C10.2047 5.7991 9.34222 6.56404 8.91109 7.3691L9.22722 5.9241H6.76947L6.42447 7.19685H7.5744L6.86628 10.0319C6.31022 11.268 5.28878 11.288 5.16059 11.2594C4.95009 11.2119 4.81546 11.1319 4.81546 10.8584C4.81546 10.7006 4.84421 10.4739 4.91609 10.2006L5.99422 5.9241H3.26321L2.91821 7.19685H4.05365L3.32071 10.1915" fill="white"/>
</svg>
