<svg width="16" height="16" viewBox="0 0 16 16" fill="none" xmlns="http://www.w3.org/2000/svg">
<path d="M15.9953 0H0.0046875C0.00209867 0 0 0.00209867 0 0.0046875V15.9953C0 15.9979 0.00209867 16 0.0046875 16H15.9953C15.9979 16 16 15.9979 16 15.9953V0.0046875C16 0.00209867 15.9979 0 15.9953 0Z" fill="#F7DF1E"/>
<path d="M10.125 11.5625C10.4375 12.0938 10.875 12.4688 11.5938 12.4688C12.2188 12.4688 12.625 12.1562 12.625 11.7188C12.625 11.2188 12.2188 11.0312 11.5312 10.7188L11.1562 10.5625C10.0625 10.0938 9.34375 9.53125 9.34375 8.3125C9.34375 7.1875 10.1875 6.3125 11.5312 6.3125C12.5 6.3125 13.1875 6.65625 13.6562 7.53125L12.5 8.28125C12.25 7.8125 11.9688 7.625 11.5312 7.625C11.0938 7.625 10.8125 7.90625 10.8125 8.28125C10.8125 8.71875 11.0938 8.90625 11.75 9.1875L12.125 9.34375C13.4062 9.90625 14.125 10.4375 14.125 11.7188C14.125 13.0625 13.0625 13.8125 11.625 13.8125C10.2188 13.8125 9.3125 13.1562 8.875 12.2812L10.125 11.5625ZM4.8125 11.6875C5.0625 12.0938 5.25 12.4688 5.78125 12.4688C6.28125 12.4688 6.59375 12.2812 6.59375 11.5312V6.34375H8.09375V11.4688C8.09375 13.0312 7.1875 13.7188 5.84375 13.7188C4.625 13.7188 3.9375 13.0938 3.59375 12.3438L4.8125 11.6875Z" fill="black"/>
</svg>
