<svg width="49" height="52" viewBox="0 0 49 52" fill="none" xmlns="http://www.w3.org/2000/svg">
<path d="M47.1371 23.7611L39.0761 3.78602C37.8337 0.722356 34.2751 -0.787991 31.1194 0.41201C30.3754 0.688933 29.6944 1.10987 29.1161 1.6503C28.5378 2.19073 28.0737 2.83985 27.7509 3.55986C27.428 4.27986 27.2529 5.05636 27.2357 5.84413C27.2185 6.63189 27.3596 7.41518 27.6507 8.14836L29.4806 12.6667C21.7005 12.5712 14.5849 16.9208 11.3008 23.7786L0.748617 42.6094C0.363322 43.2964 0.120635 44.0528 0.0348632 44.8343C-0.0509083 45.6157 0.0219716 46.4062 0.249207 47.1593C0.476442 47.9123 0.853433 48.6126 1.35796 49.219C1.86248 49.8253 2.48432 50.3253 3.18682 50.6895L3.20287 50.6975C6.17077 52.2747 9.89148 51.2131 11.5127 48.3277V48.3118L13.9107 44.0513C14.6975 44.9879 15.5725 45.848 16.5239 46.62C24.8851 53.4413 37.3457 52.3813 44.3682 44.2519C46.7846 41.4708 48.333 38.0529 48.8246 34.4146C49.3162 30.7763 48.7299 27.0748 47.1371 23.7611ZM29.5961 39.6269C25.2013 39.6269 21.6395 36.1638 21.6395 31.8922C21.6395 27.6205 25.2013 24.1574 29.5961 24.1574C33.991 24.1574 37.5512 27.6205 37.5512 31.8938C37.5512 36.167 33.9862 39.6285 29.5913 39.6285L29.5961 39.6269Z" fill="white"/>
</svg>
