<svg width="33" height="35" viewBox="0 0 33 35" fill="none" xmlns="http://www.w3.org/2000/svg">
<path d="M31.7495 16.171L26.32 2.57663C25.4831 0.491609 23.0862 -0.536278 20.9607 0.2804C20.4596 0.468863 20.0009 0.755336 19.6114 1.12313C19.2218 1.49093 18.9092 1.9327 18.6918 2.42271C18.4743 2.91272 18.3564 3.44118 18.3448 3.9773C18.3332 4.51343 18.4283 5.0465 18.6243 5.54548L19.8568 8.62048C14.6165 8.55549 9.82376 11.5157 7.61172 16.1829L0.504236 28.9984C0.244718 29.466 0.0812543 29.9808 0.0234824 30.5126C-0.0342896 31.0444 0.0147991 31.5824 0.167855 32.0949C0.320911 32.6074 0.574836 33.084 0.91466 33.4967C1.25448 33.9093 1.67333 34.2496 2.1465 34.4975L2.15732 34.5029C4.15636 35.5763 6.66247 34.8538 7.75444 32.8901V32.8793L9.36967 29.9797C9.89962 30.6172 10.489 31.2025 11.1298 31.7279C16.7615 36.3702 25.1545 35.6488 29.8845 30.1162C31.5121 28.2235 32.555 25.8974 32.8862 23.4213C33.2173 20.9452 32.8224 18.4261 31.7495 16.171ZM19.9347 26.9687C16.9745 26.9687 14.5754 24.6118 14.5754 21.7047C14.5754 18.7975 16.9745 16.4407 19.9347 16.4407C22.8949 16.4407 25.2929 18.7975 25.2929 21.7057C25.2929 24.6139 22.8916 26.9697 19.9314 26.9697L19.9347 26.9687Z" fill="#0047FF"/>
</svg>
