<svg width="16" height="16" viewBox="0 0 16 16" fill="none" xmlns="http://www.w3.org/2000/svg">
<path d="M7.987 0C3.57575 0 0 3.57638 0 7.98688C0 12.3974 3.57575 15.974 7.987 15.974C12.3981 15.974 15.9741 12.3981 15.9741 7.98694C15.9741 3.57575 12.3981 0 7.987 0ZM7.987 14.643C4.31094 14.643 1.331 11.6631 1.331 7.98694C1.331 4.31094 4.31094 1.331 7.987 1.331C11.663 1.331 14.6428 4.31281 14.6428 7.98694C14.6429 11.661 11.661 14.6428 7.987 14.6428" fill="#35A7C1"/>
<path d="M9.92792 7.98692C9.92792 6.10348 9.18886 4.39398 7.98698 3.12842C6.78498 4.39279 6.04342 6.10554 6.04342 7.98692C6.04342 8.84773 6.20317 9.67304 6.48717 10.4379C6.07573 11.038 5.77192 11.8786 5.63867 12.8454C6.06311 12.343 6.58473 11.9749 7.16317 11.7934C7.4053 12.166 7.67792 12.521 7.98855 12.8454C8.29596 12.5214 8.57218 12.1692 8.81355 11.7934C9.39211 11.9709 9.91392 12.3435 10.3399 12.8494C10.2065 11.8826 9.9028 11.0419 9.49142 10.4419C9.77148 9.67311 9.93042 8.84773 9.93042 7.98692H9.92792ZM7.98698 8.00467C7.50298 8.00467 7.11067 7.61236 7.11067 7.12842C7.11067 6.64454 7.50298 6.25229 7.98698 6.25229C8.47092 6.25229 8.86561 6.64279 8.86561 7.13092C8.86317 7.60529 8.47498 8.00467 7.98692 8.00467" fill="#35A7C1"/>
</svg>
