<svg width="19" height="12" viewBox="0 0 19 12" fill="none" xmlns="http://www.w3.org/2000/svg">
<path d="M9.1875 0C6.7375 0 5.20625 1.25641 4.59375 3.76923C5.5125 2.51282 6.58438 2.04167 7.80938 2.35577C8.50831 2.53498 9.00787 3.05503 9.56082 3.63071C10.4616 4.56848 11.5041 5.65385 13.7812 5.65385C16.2313 5.65385 17.7625 4.39744 18.375 1.88462C17.4562 3.14103 16.3844 3.61218 15.1594 3.29808C14.4604 3.11886 13.9609 2.59881 13.4079 2.02313C12.5071 1.08536 11.4646 0 9.1875 0ZM4.59375 5.65385C2.14375 5.65385 0.6125 6.91026 0 9.42308C0.91875 8.16667 1.99062 7.69551 3.21563 8.00961C3.91456 8.18883 4.41412 8.70888 4.96707 9.28456C5.86785 10.2223 6.9104 11.3077 9.1875 11.3077C11.6375 11.3077 13.1687 10.0513 13.7812 7.53846C12.8625 8.79487 11.7906 9.26603 10.5656 8.95192C9.86669 8.77271 9.36713 8.25266 8.81418 7.67698C7.9134 6.73921 6.87085 5.65385 4.59375 5.65385Z" fill="url(#paint0_linear_240_490)"/>
<defs>
<linearGradient id="paint0_linear_240_490" x1="-0.510417" y1="3.61846" x2="15.5573" y2="12.6511" gradientUnits="userSpaceOnUse">
<stop stop-color="#2298BD"/>
<stop offset="1" stop-color="#0ED7B5"/>
</linearGradient>
</defs>
</svg>
