<svg width="64" height="51" viewBox="0 0 64 51" fill="none" xmlns="http://www.w3.org/2000/svg">
<path fill-rule="evenodd" clip-rule="evenodd" d="M39.0769 31.1693C39.0769 28.9602 40.8678 27.1693 43.0769 27.1693H59.7852C61.9944 27.1693 63.7852 28.9602 63.7852 31.1693V34.8491C63.7852 37.0582 61.9944 38.8491 59.7852 38.8491H43.0769C40.8678 38.8491 39.0769 37.0582 39.0769 34.8491V31.1693ZM44.0185 30.7125C44.0185 30.5192 44.1752 30.3625 44.3685 30.3625H58.4935C58.6868 30.3625 58.8435 30.5192 58.8435 30.7125C58.8435 30.9058 58.6868 31.0625 58.4935 31.0625H44.3685C44.1752 31.0625 44.0185 30.9058 44.0185 30.7125ZM44.3685 34.4606C44.1752 34.4606 44.0185 34.6173 44.0185 34.8106C44.0185 35.0039 44.1752 35.1606 44.3685 35.1606H48.6102C48.8035 35.1606 48.9602 35.0039 48.9602 34.8106C48.9602 34.6173 48.8035 34.4606 48.6102 34.4606H44.3685Z" fill="#05488D"/>
<path fill-rule="evenodd" clip-rule="evenodd" d="M15.627 6.73621C15.627 3.4225 18.3132 0.736206 21.627 0.736206H42.0817C45.3954 0.736206 48.0817 3.4225 48.0817 6.73621V9.69458H15.627V6.73621ZM15.627 10.6946H48.0817V25.3251H41.2236C39.0145 25.3251 37.2236 27.1159 37.2236 29.3251V36.6932C37.2236 38.9023 39.0145 40.6932 41.2236 40.6932H48.0817V44.5289C48.0817 47.8426 45.3954 50.5289 42.0817 50.5289H21.627C18.3132 50.5289 15.627 47.8426 15.627 44.5289V10.6946ZM26.9451 5.11914C26.669 5.11914 26.4451 5.343 26.4451 5.61914C26.4451 5.89528 26.669 6.11914 26.9451 6.11914H36.7634C37.0395 6.11914 37.2634 5.89528 37.2634 5.61914C37.2634 5.343 37.0395 5.11914 36.7634 5.11914H26.9451ZM33.8825 45.8187C33.8825 46.9335 32.9744 47.8373 31.8541 47.8373C30.7339 47.8373 29.8257 46.9335 29.8257 45.8187C29.8257 44.7038 30.7339 43.8 31.8541 43.8C32.9744 43.8 33.8825 44.7038 33.8825 45.8187Z" fill="#BAC8E2"/>
<path fill-rule="evenodd" clip-rule="evenodd" d="M9.77366 14.2601C11.9828 14.2601 13.7737 16.051 13.7737 18.2601V24.1064V28.74C13.7737 29.3341 13.0861 28.8617 12.4164 28.2605C11.5739 27.5042 10.5141 27.0024 9.38203 27.0024H4.18408C1.97494 27.0024 0.184082 25.2116 0.184082 23.0024V18.2601C0.184082 16.051 1.97495 14.2601 4.18409 14.2601H9.77366ZM2.79942 17.614C2.60612 17.614 2.44942 17.7707 2.44942 17.964C2.44942 18.1573 2.60612 18.314 2.79942 18.314H11.1591C11.3524 18.314 11.5091 18.1573 11.5091 17.964C11.5091 17.7707 11.3524 17.614 11.1591 17.614H2.79942ZM2.79942 20.5105C2.60612 20.5105 2.44942 20.6672 2.44942 20.8605C2.44942 21.0538 2.60612 21.2105 2.79942 21.2105H11.1591C11.3524 21.2105 11.5091 21.0538 11.5091 20.8605C11.5091 20.6672 11.3524 20.5105 11.1591 20.5105H2.79942ZM2.44942 23.7567C2.44942 23.5634 2.60612 23.4067 2.79942 23.4067H6.62929C6.82259 23.4067 6.97929 23.5634 6.97929 23.7567C6.97929 23.95 6.82259 24.1067 6.62929 24.1067H2.79942C2.60612 24.1067 2.44942 23.95 2.44942 23.7567Z" fill="#BAC8E2"/>
</svg>
