<svg width="78" height="63" viewBox="0 0 78 63" fill="none" xmlns="http://www.w3.org/2000/svg">
<rect x="12.1836" y="2.63721" width="63.0769" height="48.9061" stroke="#979797" stroke-dasharray="2 4"/>
<rect x="10.1973" y="0.608643" width="3.08062" height="3.08062" fill="#979797"/>
<rect x="42.4893" y="0.608643" width="3.08062" height="3.08062" fill="#979797"/>
<rect x="10.1973" y="26.166" width="3.08062" height="3.08062" fill="#979797"/>
<rect x="74.106" y="0.608643" width="3.08062" height="3.08062" fill="#979797"/>
<rect x="74.106" y="26.166" width="3.08062" height="3.08062" fill="#979797"/>
<rect x="74.106" y="50.2712" width="3.08062" height="3.08062" fill="#979797"/>
<rect x="42.4893" y="50.2712" width="3.08062" height="3.08062" fill="#979797"/>
<rect x="12.0459" y="45.9584" width="3.08062" height="3.08062" fill="#979797"/>
<path fill-rule="evenodd" clip-rule="evenodd" d="M16.5317 3.9856C14.8749 3.9856 13.5317 5.32874 13.5317 6.98559V12.1041H73.9119V6.9856C73.9119 5.32874 72.5688 3.9856 70.9119 3.9856H16.5317ZM73.9119 13.1041H13.5317V31.0892L37.5377 50.811H70.9119C72.5688 50.811 73.9119 49.4679 73.9119 47.811V13.1041ZM25.2651 8.40034C25.2651 9.23969 24.5893 9.92011 23.7556 9.92011C22.9219 9.92011 22.2461 9.23969 22.2461 8.40034C22.2461 7.56099 22.9219 6.88057 23.7556 6.88057C24.5893 6.88057 25.2651 7.56099 25.2651 8.40034ZM19.229 8.4009C19.229 9.24025 18.5531 9.92067 17.7195 9.92067C16.8858 9.92067 16.21 9.24025 16.21 8.4009C16.21 7.56155 16.8858 6.88113 17.7195 6.88113C18.5531 6.88113 19.229 7.56155 19.229 8.4009ZM29.7942 9.92016C30.6278 9.92016 31.3037 9.23974 31.3037 8.40039C31.3037 7.56104 30.6278 6.88062 29.7942 6.88062C28.9605 6.88062 28.2847 7.56104 28.2847 8.40039C28.2847 9.23974 28.9605 9.92016 29.7942 9.92016Z" fill="#BAC8E2"/>
<path d="M11.397 32.9735L34.172 51.9479L19.6636 51.9479L10.9362 61.7407L11.397 32.9735Z" fill="#05488D"/>
</svg>
