<svg width="68" height="59" viewBox="0 0 68 59" fill="none" xmlns="http://www.w3.org/2000/svg">
<path fill-rule="evenodd" clip-rule="evenodd" d="M45.761 14.7447C45.761 21.5486 40.2467 27.0629 33.4428 27.0629C26.6389 27.0629 21.1245 21.5486 21.1245 14.7447C21.1245 7.94082 26.6389 2.42651 33.4428 2.42651C40.2467 2.42651 45.761 7.94082 45.761 14.7447ZM54.9995 47.08C54.9995 49.6303 52.9304 51.6993 50.3802 51.6993H19.7658L18.9092 49.9618C21.7685 47.5915 23.5944 44.0098 23.5944 39.9994C23.5944 36.5345 22.2319 33.3877 20.0135 31.0658C21.4995 30.4702 23.1216 30.1425 24.8199 30.1425H26.427C28.5731 31.1241 30.9405 31.6823 33.4426 31.6823C35.9448 31.6823 38.3218 31.1241 40.4583 30.1425H42.0653C49.2061 30.1425 54.9995 35.9359 54.9995 43.0766V47.08Z" fill="#BAC8E2"/>
<path fill-rule="evenodd" clip-rule="evenodd" d="M51.9102 0.58252C49.701 0.58252 47.9102 2.37338 47.9102 4.58252V14.6786V21.312C47.9102 22.3421 49.3866 21.1329 50.5054 20.0687C51.3143 19.2993 52.3721 18.8245 53.4885 18.8245H63.8105C66.0196 18.8245 67.8105 17.0336 67.8105 14.8245V4.58252C67.8105 2.37338 66.0196 0.58252 63.8105 0.58252H51.9102ZM51.578 5.68611C51.3847 5.68611 51.228 5.84281 51.228 6.03611C51.228 6.22941 51.3847 6.38611 51.578 6.38611H64.1449C64.3382 6.38611 64.4949 6.22941 64.4949 6.03611C64.4949 5.84281 64.3382 5.68611 64.1449 5.68611H51.578ZM51.578 9.83272C51.3847 9.83272 51.228 9.98942 51.228 10.1827C51.228 10.376 51.3847 10.5327 51.578 10.5327H64.1449C64.3382 10.5327 64.4949 10.376 64.4949 10.1827C64.4949 9.98942 64.3382 9.83272 64.1449 9.83272H51.578ZM51.228 14.3287C51.228 14.1354 51.3847 13.9787 51.578 13.9787H57.5115C57.7048 13.9787 57.8615 14.1354 57.8615 14.3287C57.8615 14.522 57.7048 14.6787 57.5115 14.6787H51.578C51.3847 14.6787 51.228 14.522 51.228 14.3287Z" fill="#BAC8E2"/>
<path fill-rule="evenodd" clip-rule="evenodd" d="M14.0737 49.8609C13.0041 50.2294 11.8561 50.4295 10.6614 50.4295C4.87871 50.4295 0.190918 45.7417 0.190918 39.959C0.190918 34.1763 4.87871 29.4885 10.6614 29.4885C16.4441 29.4885 21.1319 34.1763 21.1319 39.959C21.1319 43.8901 18.9655 47.3152 15.7614 49.1056L19.7759 57.249C20.0015 57.7067 19.8134 58.2605 19.3558 58.4862C18.8981 58.7118 18.3442 58.5237 18.1186 58.066L14.0737 49.8609ZM19.3872 39.9591C19.3872 44.778 15.4807 48.6844 10.6618 48.6844C5.84289 48.6844 1.9364 44.778 1.9364 39.9591C1.9364 35.1401 5.84289 31.2337 10.6618 31.2337C15.4807 31.2337 19.3872 35.1401 19.3872 39.9591Z" fill="#05488D"/>
</svg>
