<svg width="69" height="59" viewBox="0 0 69 59" fill="none" xmlns="http://www.w3.org/2000/svg">
<path fill-rule="evenodd" clip-rule="evenodd" d="M46.0324 14.0938C46.0324 20.8648 40.5181 26.3525 33.7142 26.3525C26.9103 26.3525 21.396 20.8648 21.396 14.0938C21.396 7.32275 26.9103 1.83508 33.7142 1.83508C40.5181 1.83508 46.0324 7.32275 46.0324 14.0938ZM55.271 46.2728C55.271 48.8108 53.2019 50.8699 50.6516 50.8699H30.2653C26.432 50.8699 23.8223 46.3502 23.8223 42.5169C23.8223 40.2935 23.3755 38.1832 22.5739 36.2857C21.3347 33.3519 21.9066 29.4171 25.0914 29.4171C26.1505 29.4171 27.1894 29.6668 28.1897 30.0145C29.9239 30.6171 31.7787 30.9495 33.7141 30.9495C35.6482 30.9495 37.5076 30.6176 39.239 30.0157C40.2392 29.6679 41.2778 29.4171 42.3368 29.4171C49.4775 29.4171 55.271 35.1826 55.271 42.2888V46.2728Z" fill="#BAC8E2"/>
<path fill-rule="evenodd" clip-rule="evenodd" d="M52.1812 0C49.972 0 48.1812 1.79086 48.1812 4V14.028V20.6294C48.1812 21.6548 49.6585 20.4503 50.7774 19.391C51.5857 18.6259 52.6407 18.1538 53.7537 18.1538H64.0815C66.2906 18.1538 68.0815 16.363 68.0815 14.1538V4C68.0815 1.79086 66.2906 0 64.0815 0H52.1812ZM51.849 5.07549C51.6557 5.07549 51.499 5.23219 51.499 5.42549C51.499 5.61879 51.6557 5.77549 51.849 5.77549H64.4159C64.6092 5.77549 64.7659 5.61879 64.7659 5.42549C64.7659 5.23219 64.6092 5.07549 64.4159 5.07549H51.849ZM51.849 9.20209C51.6557 9.20209 51.499 9.35879 51.499 9.55209C51.499 9.74539 51.6557 9.90209 51.849 9.90209H64.4159C64.6092 9.90209 64.7659 9.74539 64.7659 9.55209C64.7659 9.35879 64.6092 9.20209 64.4159 9.20209H51.849ZM51.499 13.6781C51.499 13.4848 51.6557 13.3281 51.849 13.3281H57.7825C57.9758 13.3281 58.1325 13.4848 58.1325 13.6781C58.1325 13.8714 57.9758 14.0281 57.7825 14.0281H51.849C51.6557 14.0281 51.499 13.8714 51.499 13.6781Z" fill="#BAC8E2"/>
<path fill-rule="evenodd" clip-rule="evenodd" d="M10.513 28.7526C7.67885 28.7526 5.38135 31.0501 5.38135 33.8842V44.0482C5.38135 46.8823 7.67885 49.1798 10.513 49.1798C13.3471 49.1798 15.6446 46.8823 15.6446 44.0482V33.8842C15.6446 31.0501 13.3471 28.7526 10.513 28.7526ZM3.6543 41.5646C3.6543 40.7361 2.98272 40.0646 2.1543 40.0646C1.32587 40.0646 0.654297 40.7361 0.654297 41.5646V44.0319C0.654297 48.9197 4.14267 52.9927 8.76562 53.8972C9.28313 53.9985 9.68408 54.4345 9.68408 54.9618C9.68408 55.5291 9.22418 55.989 8.65687 55.989H6.7987C6.12298 55.989 5.5752 56.5368 5.5752 57.2125C5.5752 57.8882 6.12298 58.436 6.79871 58.436H14.6149C15.2906 58.436 15.8384 57.8882 15.8384 57.2125C15.8384 56.5368 15.2906 55.989 14.6149 55.989H13.2175C12.624 55.989 12.143 55.5079 12.143 54.9145C12.143 54.3798 12.5381 53.9327 13.058 53.8081C17.4758 52.7496 20.7597 48.7742 20.7597 44.0319V41.5646C20.7597 40.7361 20.0881 40.0646 19.2597 40.0646C18.4312 40.0646 17.7597 40.7361 17.7597 41.5646V44.0319C17.7597 47.9269 14.6021 51.0845 10.707 51.0845C6.81189 51.0845 3.6543 47.9269 3.6543 44.0319V41.5646Z" fill="#05488D"/>
</svg>
