<svg width="50" height="55" viewBox="0 0 50 55" fill="none" xmlns="http://www.w3.org/2000/svg">
<path fill-rule="evenodd" clip-rule="evenodd" d="M0.208496 3C0.208496 1.34315 1.55164 0 3.2085 0H46.099C47.7559 0 49.099 1.34315 49.099 3V6.16621H0.208496V3ZM0.208496 7.16621H49.099V51.3228C49.099 52.9796 47.7559 54.3228 46.099 54.3228H3.2085C1.55164 54.3228 0.208496 52.9796 0.208496 51.3228V7.16621ZM11.8503 4.75101C12.6003 4.75101 13.2084 4.13529 13.2084 3.37575C13.2084 2.61622 12.6003 2.00049 11.8503 2.00049C11.1002 2.00049 10.4922 2.61622 10.4922 3.37575C10.4922 4.13529 11.1002 4.75101 11.8503 4.75101ZM5.1977 4.75147C5.94774 4.75147 6.55577 4.13575 6.55577 3.37621C6.55577 2.61668 5.94774 2.00095 5.1977 2.00095C4.44766 2.00095 3.83963 2.61668 3.83963 3.37621C3.83963 4.13575 4.44766 4.75147 5.1977 4.75147ZM19.8633 3.37575C19.8633 4.13529 19.2553 4.75101 18.5052 4.75101C17.7552 4.75101 17.1472 4.13529 17.1472 3.37575C17.1472 2.61622 17.7552 2.00049 18.5052 2.00049C19.2553 2.00049 19.8633 2.61622 19.8633 3.37575ZM29.1764 12.9016L39.1735 27.1614H24.1923L24.1924 27.1614H12.4311L18.3117 19.013L21.6495 23.638L29.1764 12.9016ZM21.3676 17.6549C22.3051 17.6549 23.0651 16.8949 23.0651 15.9573C23.0651 15.0198 22.3051 14.2597 21.3676 14.2597C20.43 14.2597 19.67 15.0198 19.67 15.9573C19.67 16.8949 20.43 17.6549 21.3676 17.6549ZM16.3263 29.5566C16.0502 29.5566 15.8263 29.7804 15.8263 30.0566C15.8263 30.3327 16.0502 30.5566 16.3263 30.5566H35.6974C35.9735 30.5566 36.1974 30.3327 36.1974 30.0566C36.1974 29.7804 35.9735 29.5566 35.6974 29.5566H16.3263ZM22.6166 33.4519C22.6166 33.1757 22.8404 32.9519 23.1166 32.9519H29.586C29.8621 32.9519 30.086 33.1757 30.086 33.4519C30.086 33.728 29.8621 33.9519 29.586 33.9519H23.1166C22.8404 33.9519 22.6166 33.728 22.6166 33.4519ZM23.1165 39.7421C22.8403 39.7421 22.6165 39.966 22.6165 40.2421C22.6165 40.5182 22.8403 40.7421 23.1165 40.7421H29.5859C29.862 40.7421 30.0859 40.5182 30.0859 40.2421C30.0859 39.966 29.862 39.7421 29.5859 39.7421H23.1165ZM22.6165 42.9583C22.6165 42.6821 22.8403 42.4583 23.1165 42.4583H42.4875C42.7637 42.4583 42.9875 42.6821 42.9875 42.9583C42.9875 43.2344 42.7637 43.4583 42.4875 43.4583H23.1165C22.8403 43.4583 22.6165 43.2344 22.6165 42.9583ZM23.1165 45.1744C22.8403 45.1744 22.6165 45.3983 22.6165 45.6744C22.6165 45.9505 22.8403 46.1744 23.1165 46.1744H42.4875C42.7637 46.1744 42.9875 45.9505 42.9875 45.6744C42.9875 45.3983 42.7637 45.1744 42.4875 45.1744H23.1165Z" fill="#BAC8E2"/>
<circle cx="13.4497" cy="43.1188" r="5.09276" fill="#05488D"/>
</svg>
