<svg width="51" height="57" viewBox="0 0 51 57" fill="none" xmlns="http://www.w3.org/2000/svg">
<path fill-rule="evenodd" clip-rule="evenodd" d="M3 0.262085C1.34315 0.262085 0 1.60523 0 3.26209V6.73327H50.9709V3.26208C50.9709 1.60523 49.6277 0.262085 47.9709 0.262085H3ZM50.9709 7.73327H0V53.8964C0 55.5532 1.34315 56.8964 3 56.8964H47.9709C49.6277 56.8964 50.9709 55.5532 50.9709 53.8964V7.73327ZM13.5529 3.78168C13.5529 4.57353 12.9189 5.21546 12.137 5.21546C11.355 5.21546 10.7211 4.57353 10.7211 3.78168C10.7211 2.98983 11.355 2.3479 12.137 2.3479C12.9189 2.3479 13.5529 2.98983 13.5529 3.78168ZM6.61736 3.78226C6.61736 4.57412 5.98346 5.21604 5.2015 5.21604C4.41955 5.21604 3.78564 4.57412 3.78564 3.78226C3.78564 2.99041 4.41955 2.34848 5.2015 2.34848C5.98346 2.34848 6.61736 2.99041 6.61736 3.78226ZM19.0752 5.21552C19.8571 5.21552 20.491 4.57359 20.491 3.78174C20.491 2.98988 19.8571 2.34796 19.0752 2.34796C18.2932 2.34796 17.6593 2.98988 17.6593 3.78174C17.6593 4.57359 18.2932 5.21552 19.0752 5.21552ZM23.8616 41.7379C23.5854 41.7379 23.3616 41.9618 23.3616 42.2379C23.3616 42.5141 23.5854 42.7379 23.8616 42.7379H30.6488C30.9249 42.7379 31.1488 42.5141 31.1488 42.2379C31.1488 41.9618 30.9249 41.7379 30.6488 41.7379H23.8616ZM23.3616 45.0696C23.3616 44.7934 23.5854 44.5696 23.8616 44.5696H44.0994C44.3756 44.5696 44.5994 44.7934 44.5994 45.0696C44.5994 45.3457 44.3756 45.5696 44.0994 45.5696H23.8616C23.5854 45.5696 23.3616 45.3457 23.3616 45.0696ZM23.8616 47.4014C23.5854 47.4014 23.3616 47.6252 23.3616 47.9014C23.3616 48.1775 23.5854 48.4014 23.8616 48.4014H44.0994C44.3756 48.4014 44.5994 48.1775 44.5994 47.9014C44.5994 47.6252 44.3756 47.4014 44.0994 47.4014H23.8616Z" fill="#BAC8E2"/>
<rect x="5.93481" y="11.939" width="39.1327" height="21.9143" fill="#05488D"/>
<rect x="5.93481" y="38.5493" width="14.8704" height="14.8704" fill="#05488D"/>
<path d="M5.93481 11.939L45.0675 33.8533" stroke="#BAC8E2" stroke-linecap="round" stroke-linejoin="round"/>
<path d="M45.0674 11.939L5.93465 33.8533" stroke="#BAC8E2" stroke-linecap="round" stroke-linejoin="round"/>
<path d="M5.93481 38.5493L20.8053 53.4198" stroke="#BAC8E2" stroke-linecap="round" stroke-linejoin="round"/>
<path d="M20.8052 38.5493L5.93474 53.4198" stroke="#BAC8E2" stroke-linecap="round" stroke-linejoin="round"/>
</svg>
