<svg width="16" height="16" viewBox="0 0 16 16" fill="none" xmlns="http://www.w3.org/2000/svg">
<rect width="16" height="16" rx="1" fill="#05A8DA"/>
<path d="M7.99999 13.7297C11.1644 13.7297 13.7297 11.1644 13.7297 7.99999C13.7297 4.83555 11.1644 2.27026 7.99999 2.27026C4.83555 2.27026 2.27026 4.83555 2.27026 7.99999C2.27026 11.1644 4.83555 13.7297 7.99999 13.7297Z" stroke="white"/>
<path d="M9.87926 13.3537L10.4167 13.061C10.637 12.941 10.8042 12.7426 10.8851 12.5051L12.4566 7.89002C12.7709 7.09124 12.8652 6.45221 12.8652 5.90904C12.8652 4.88659 12.4566 3.99196 11.7337 3.8961C11.0736 3.8322 10.6965 4.50318 10.7279 4.88659C10.7907 5.81318 11.7022 6.32441 11.7022 7.60246C11.7022 7.78906 11.6776 7.99929 11.635 8.22794C11.4544 9.19542 10.0273 9.19279 9.72215 8.25711L8.97435 5.96427C8.87598 5.66268 9.09098 5.35002 9.40779 5.33391C9.7221 5.33391 9.69067 4.85464 9.37636 4.88659C8.40201 4.98245 7.49052 4.9505 6.48473 4.88659C6.17042 4.85464 6.17042 5.33391 6.4533 5.33391C6.79628 5.35328 7.09443 5.57588 7.21048 5.89921L7.7517 7.40711C7.82687 7.61655 7.83004 7.84507 7.76071 8.05651L7.62102 8.48253C7.32029 9.39967 6.02324 9.40069 5.72107 8.48403L4.89023 5.96365C4.79105 5.66276 5.00538 5.35 5.32179 5.33391C5.60467 5.33391 5.57324 4.85464 5.29036 4.88659C4.7848 4.92204 4.2889 4.95748 3.90994 4.95476C3.59054 4.95247 3.17694 5.16525 3.07742 5.46876C3.04496 5.56777 3.04624 5.67475 3.08106 5.77295L5.59665 12.8663C5.64237 12.9952 5.73294 13.1034 5.85181 13.1711C6.16347 13.3485 6.55958 13.1973 6.67386 12.8574L8.15056 8.46515" fill="white"/>
</svg>
